<svg viewBox="0 0 300 300" xmlns="http://www.w3.org/2000/svg"><path d="M0 0h142.72c-2.28.95-4.29.24-6.71.2-11.08-.44-22.36 1.2-33.12 3.8-10.28 2.61-20.77 6.38-29.7 12.2-13.4 8.89-23.69 22.74-31.18 36.79a159.58 159.58 0 0 0-9.98 23.02c-.74 1.54.4 3.58 2.04 3.89 1.29.22 2.71-.46 3.93-.84 4.29-1.58 8.73-3.09 13.2-4.06-6.61 6.59-11.79 13.77-14.47 22.82-8.12 3.27-16.02 7.54-20.87 15.11-2.2 3.44-3.83 8.25-2.01 12.17 1.32 2.74 3.68 3.63 6.24 4.87-.18 4 .53 7.35 1.72 11.11-.22 3.31-3.21 6.95-5.22 9.49-4.47 6.08-8.05 13.73-7.35 21.45.23 3.25 1.48 6.68 4.68 8.08 2.24 1.06 4.76.4 7.11.16.67 1.25 1.35 2.49 2.02 3.74-.77 4.82-.45 8.32 1.07 12.93-3.68 7.56-5.17 15.92-3.18 24.19.9 3.23 2.52 6.21 6 7.12 4.42.8 7.78-2.19 11.04-4.64.85 4.55 2.62 8.42 4.71 12.49.03 5.07.32 9.88 2.79 14.44 1.55 2.84 3.93 6.12 7.52 6.13 3.19.05 4.47-2.28 6.97-3.74 1.47 1.88 1.43 5.08 2.84 7.22 2.69 5.13 7.34 7.79 12.75 9.31 2.57 5.4 5.25 10.79 11.39 12.75 3.72.91 5.94-1.15 7.54-4.21 7.01 4.84 13.17 6.34 21.71 5.73 4.52 3.11 9.27 5.54 14.8 6.15 4.57.76 8.7-.32 13.09-1.35 3.02.34 5.84 1.17 8.92.89 4.95-.18 9.39-1.82 14.05-3.26 3.12.33 5.71 1.67 8.96.92 3.96-.57 6.93-2.67 10.22-4.73 3.16-.29 6.17.07 9.24-1.08 2.27-.66 4.14-2.43 6.38-3.01 3.32.39 6.34 1.06 9.65.1 4.11-1.24 8.2-2.04 12.51-1.34 1.78.31 4.48.72 5.51 2.41.99 2.74.15 6.23-1.72 8.44-2.28 1.72-4.71 2.1-5.46 5.26-.71 3.02.79 4.85 2.75 6.88H0V0z" fill="#fff"/><path d="M142.72 0h9.05l1.37.82c5.95-.56 11.36-1 16.64 2.38 2.82 2 6.08 4.8 4.9 8.68-1.23 3.55-6.26 4.9-9.17 6.75-.72 2.72-.41 5.18-2.41 7.43-2.6 2.88-2.66 6.78-5.41 9.61-4.23 4.58-5.82 10.27-5.67 16.43 7.01-1.02 13.4-2.29 20.22.61 3.07 1.28 5.12 3.57 6.92 6.27 1.58.71 3.16 1.43 4.73 2.14 3.85-1.74 7.71-2.55 11.72-.7 3.38 1.45 4.95 4.18 7.41 6.65 2.36.5 3.46-.64 4.5-2.55 1.73-2.25-.14-4.09-.51-6.5-.61-2.97.77-5.52 2.1-8.04-1.44-2.59-3.32-5.13-4.29-7.94-.75-2.64.46-5.35 2.97-6.46 5.3-2.24 11-1.05 15.74 1.89 2.61 1.55 4.12 3.8 7.32 4.21 5.71 2.04 11.79 4.08 16.17 8.28 4.25 3.8 6.98 8.55 9.37 13.65 8.12 17.08 7.39 34.9 4.8 53.17 7.55 9.58 8.08 22.71 10.04 34.22.01 7.87.67 15.39-1.68 23.07 2.3-1.24 4.25-2.96 6.46-4.32 1.97-1.43 5.04 1.07 4.19 3.25-1.51 5.09-3.67 9.49-3.33 15 .56 10.02 5.33 20.02 10.93 28.19 1 1.67 3.37 3.65 3.03 5.72-.44 1.79-1.85 2.02-3.33 2.68-5.84 1.74-9.48 7.56-12.31 12.58-3.68 6.57-5.97 13.61-8.16 20.77-.72 2.38-4.24 2.56-5.25.32-3.02-5.62-5.82-11.37-8.66-17.08-2.08.82-4.38 1.43-6.29 2.61-1.58 1.79-2.93 3.77-4.49 5.59 6.59 3.25 11.42 8.48 13.03 15.77 2.97 12.87-3.28 29.05-15.61 34.85H225.1c-1.96-2.03-3.46-3.86-2.75-6.88.75-3.16 3.18-3.54 5.46-5.26 1.87-2.21 2.71-5.7 1.72-8.44-1.03-1.69-3.73-2.1-5.51-2.41-4.31-.7-8.4.1-12.51 1.34-3.31.96-6.33.29-9.65-.1-2.24.58-4.11 2.35-6.38 3.01-3.07 1.15-6.08.79-9.24 1.08-3.29 2.06-6.26 4.16-10.22 4.73-3.25.75-5.84-.59-8.96-.92-4.66 1.44-9.1 3.08-14.05 3.26-3.08.28-5.9-.55-8.92-.89-4.39 1.03-8.52 2.11-13.09 1.35-5.53-.61-10.28-3.04-14.8-6.15-8.54.61-14.7-.89-21.71-5.73-1.6 3.06-3.82 5.12-7.54 4.21-6.14-1.96-8.82-7.35-11.39-12.75-5.41-1.52-10.06-4.18-12.75-9.31-1.41-2.14-1.37-5.34-2.84-7.22-2.5 1.46-3.78 3.79-6.97 3.74-3.59-.01-5.97-3.29-7.52-6.13-2.47-4.56-2.76-9.37-2.79-14.44-2.09-4.07-3.86-7.94-4.71-12.49-3.26 2.45-6.62 5.44-11.04 4.64-3.48-.91-5.1-3.89-6-7.12-1.99-8.27-.5-16.63 3.18-24.19-1.52-4.61-1.84-8.11-1.07-12.93-.67-1.25-1.35-2.49-2.02-3.74-2.35.24-4.87.9-7.11-.16-3.2-1.4-4.45-4.83-4.68-8.08-.7-7.72 2.88-15.37 7.35-21.45 2.01-2.54 5-6.18 5.22-9.49-1.19-3.76-1.9-7.11-1.72-11.11-2.56-1.24-4.92-2.13-6.24-4.87-1.82-3.92-.19-8.73 2.01-12.17 4.85-7.57 12.75-11.84 20.87-15.11C39.41 88.77 44.59 81.59 51.2 75c-4.47.97-8.91 2.48-13.2 4.06-1.22.38-2.64 1.06-3.93.84-1.64-.31-2.78-2.35-2.04-3.89a159.58 159.58 0 0 1 9.98-23.02c7.49-14.05 17.78-27.9 31.18-36.79 8.93-5.82 19.42-9.59 29.7-12.2 10.76-2.6 22.04-4.24 33.12-3.8 2.42.04 4.43.75 6.71-.2z" fill="#122a44"/><path d="M151.77 0H300v300h-60.24c12.33-5.8 18.58-21.98 15.61-34.85-1.61-7.29-6.44-12.52-13.03-15.77 1.56-1.82 2.91-3.8 4.49-5.59 1.91-1.18 4.21-1.79 6.29-2.61 2.84 5.71 5.64 11.46 8.66 17.08 1.01 2.24 4.53 2.06 5.25-.32 2.19-7.16 4.48-14.2 8.16-20.77 2.83-5.02 6.47-10.84 12.31-12.58 1.48-.66 2.89-.89 3.33-2.68.34-2.07-2.03-4.05-3.03-5.72-5.6-8.17-10.37-18.17-10.93-28.19-.34-5.51 1.82-9.91 3.33-15 .85-2.18-2.22-4.68-4.19-3.25-2.21 1.36-4.16 3.08-6.46 4.32 2.35-7.68 1.69-15.2 1.68-23.07-1.96-11.51-2.49-24.64-10.04-34.22 2.59-18.27 3.32-36.09-4.8-53.17-2.39-5.1-5.12-9.85-9.37-13.65-4.38-4.2-10.46-6.24-16.17-8.28-3.2-.41-4.71-2.66-7.32-4.21-4.74-2.94-10.44-4.13-15.74-1.89-2.51 1.11-3.72 3.82-2.97 6.46.97 2.81 2.85 5.35 4.29 7.94-1.33 2.52-2.71 5.07-2.1 8.04.37 2.41 2.24 4.25.51 6.5-1.04 1.91-2.14 3.05-4.5 2.55-2.46-2.47-4.03-5.2-7.41-6.65-4.01-1.85-7.87-1.04-11.72.7-1.57-.71-3.15-1.43-4.73-2.14-1.8-2.7-3.85-4.99-6.92-6.27-6.82-2.9-13.21-1.63-20.22-.61-.15-6.16 1.44-11.85 5.67-16.43 2.75-2.83 2.81-6.73 5.41-9.61 2-2.25 1.69-4.71 2.41-7.43 2.91-1.85 7.94-3.2 9.17-6.75 1.18-3.88-2.08-6.68-4.9-8.68C164.5-.18 159.09.26 153.14.82L151.77 0z" fill="#fff"/><path d="M148.66 3.98c.51 2.98.48 5.71 1.92 8.45 1.72 3.59 4.52 5.79 7.46 8.32-1.18.07-2.35.15-3.52.23.98.73 1.96 1.47 2.94 2.2-1.28 1.26-2.62 2.24-4.44 2.55-1.42-.38-2.78-.9-4.17-1.38 1.38 2.22 3.31 2.84 5.67 3.6-1.23 3.34-4.24 5.59-5.75 8.85-5.68 10.66-3.41 24.75 2.02 35.07l2.46-1.74c.23 1.99.53 3.98.94 5.95 2.3-2.57 3.34-5.84 1.88-9.11-1.01-1.79-2.33-1.19-4.05-1.45-.49-1.15-.97-2.31-1.41-3.49 3.13-2.68 6.58-2.18 10.41-1.9 3.49.27 6.5 1.66 9.93 2.26-2.08 1.22-3.25 2.12-3.95 4.52 1.49-1.25 2.95-2.52 4.57-3.61 3.06 1 5.91 1.57 8.36 3.81 2.26 1.88 3.1 4.33 4.28 6.9-2.68.86-4.77 2.54-7.29 4.02 2.15 3.95 4.63 7.66 7.89 10.8-.65-3.45-2.51-6.15-4.53-8.92 1.97-2.59 5.13-5.09 8.53-3.64 3.98 1.81 6.71 6.48 9.65 9.65-1.53-2.79-3.14-5.72-5.25-8.12-1.24-1.41-2.98-2.43-4.09-3.93-.91-1.79-1.6-3.69-2.55-5.47 1.15-.32 2.3-.61 3.46-.85 4.94.3 6.78 7.58 11.4 7.9 4.57.79 8.61 1.44 11.92 5.02-1.67 1.04-3.17 2.04-3.86 3.98-.78 2.04.42 4.59.97 6.59-3.17.9-6.18 1.72-7.76 4.92-.92 2.57.81 4.66 2.76 6.09-.73-2.07-2.77-4.31-.58-6.2 3.26-2.83 6.27-1.63 10.11-1.66 1.9-.65-.65-3.16-1.13-4.08-1.8-2.48-2.55-4.23-.14-6.66 6.4-.07 10 3.96 15.23 6.92-1.69 2.09-1.62 3.92-1.54 6.47-2.61-.81-5.16-2.62-7 .54-1.93 3.92.87 9.81 2.02 13.75-2.25-1.42-4.12-3.09-6.76-3.77-7.99-2.29-15.16-6.37-23.02-8.96-3.66-1.27-7.01-3.19-10.74-4.27-5-1.5-9.64-3.82-14.57-5.49-5.42-1.74-9.44-4.8-15.34-5.11-3.42.07-6.85.65-10.11 1.68.73.55 1.47 1.08 2.22 1.59-5.23-.71-9.97.22-14.56 2.77-3.19 2.03-6.71 1.41-10.1 2.91-4.5 1.79-7.58 5.11-10.46 8.87-8.67-1.14-17.32-2.37-25.98-3.58-1.42-.07-3.72-.84-4.72.48-.64 1.29-.77 2.85-1.02 4.26-1.12 8.07-2.2 16.15-3.2 24.23-1.03-.09-2.06-.11-3.09-.05-1.21.83-1.11 3-1.4 4.32-.7 5.37-1.34 10.74-2.33 16.07-.49 1.78 1.18 3.7 1.95 5.2.58-.8 1.15-1.61 1.72-2.42-1.11 7.02-1.88 14.09-2.95 21.12-.84 5.44.62 11.08 2.94 15.99.61 6.53 4.05 10.96 10.38 12.82-.82.97-2.18 1.74-2.04 3.18.02 6.35 1.31 12.53 1.15 18.92 1.54 8.93.02 17.34 2.69 26.15-.78-.59-1.51-1.23-2.2-1.91-7.51-8.91-14.12-18.37-18.51-29.23a90.66 90.66 0 0 1-2.92-6.71c-2.97-9.09-4.97-18.48-5.76-28.02.03-8.08-.16-16.1.42-24.17.17-2.28.1-4.56-.07-6.84-5.1.92-9 3.44-14.33 1.98-.03-.96-.07-1.92-.13-2.88-.98 3.57-2.44 9.88-6.63 10.9-1.94-2.92-3.78-5.56-4.24-9.14-.42-2.69.78-5.43 1.59-7.96 1.64-.24 2.83-.51 3.87-1.9 2.4-3.23 3.43-7.65 3.37-11.62-1.56 3.51-2.41 7.04-5.39 9.67-1.4-4.93-2.79-11.2-1.22-16.2.7-2.25 2.15-2.89 4.19-3.75 3.83 3.03 8.5.69 11.8-1.92-2.26.19-4.51.46-6.77.65-1.11-5.65-.09-9.58 2.16-14.69 2.04.36 3.95-.06 5.97-.36.06 2.77-.64 6.05 1.59 8.19 1.42 1.35 3.12 1.23 4.93 1.5-1.95-1.26-4.64-1.84-4.67-4.61.02-5.75 3.66-9.96 5.83-14.97-3.95 2.41-6.49 5.92-10.83 6.84 2.51-5.41 4.85-10.77 8.54-15.52 5.49.79 10.81.16 16.32.64 2.34.21 4.65.57 7 .63 12.74.09 25.5-.13 38.23.31.57-.22 1.14-.45 1.71-.71 5.1 1.7 8.69-1.26 13.16-3.2 4.26-1.3 9.3-3.62 13.77-2.97 1.11.17 2.23.28 3.37.31-1.27-2.46-2.42-5.25-4.27-7.32-3.05-2.99-8.03-2.83-11.85-1.73-6.15 1.9-10.26 5.84-14.97 9.94-2.55-2.89-5.34-5.33-9.14-6.38-7.88-2.43-15.04-.25-22.56 2.11-.38-2.66-.41-5.04-2.25-7.19-2.81-3.32-7.05-4.15-11.19-4.45-10.76-.54-19.93 2.62-30.08 5.11.81-2.01 1.71-3.97 2.65-5.92l.86 1.04c2.59-4.75 5.28-9.47 7.97-14.18 8.13-13.34 19.78-26.31 34.31-32.7 12.15-5.31 25.38-8.47 38.53-9.93l-.55-.87c-2.54-.47-5.26-.22-7.84-.26 7.45-1.15 15.19-1.81 22.71-1.05-.08 1.07-.17 2.13-.26 3.2 1.94-2.31 3.49-4.44 6.71-4.88.29 2.76.58 5.44 1.58 8.05.19-2.71-.77-6.8 1.06-8.99z" fill="#1797e5"/><path d="M151.06 7.37c3.04-.79 5.91-1.21 9.05-1.22-1.98 2.41-2.09 3.84-1.88 6.88 3.14-1.29 5.94-3.16 8.98-4.63l1.6 1.46c-4.3 2.05-8.46 3.99-11.77 7.54-2.91-2.91-5.34-5.82-5.98-10.03z" fill="#f9fbfc"/><path d="M160.11 6.15l.9-.02c2.26.33 4.31.99 6.2 2.27-3.04 1.47-5.84 3.34-8.98 4.63-.21-3.04-.1-4.47 1.88-6.88z" fill="#e1e6e9"/><path d="M116.86 7.65c2.58.04 5.3-.21 7.84.26l.55.87c-13.15 1.46-26.38 4.62-38.53 9.93-14.53 6.39-26.18 19.36-34.31 32.7-2.69 4.71-5.38 9.43-7.97 14.18l-.86-1.04c6.14-13.39 14.24-26.78 25.14-36.83 12.58-11.96 31.33-17.6 48.14-20.07z" fill="#48b3ec"/><path d="M137.29 9.67c-.2 3.45.4 6.8.6 10.22-.55.46-1.16.85-1.83 1.17-20.91 9.74-38.16 27.72-49.51 47.58-1.59.64-2.07-1.32-3.01-2.2-2.68-3.82-7.08-4.97-11.53-5.16-8.53-.37-16 2.02-23.96 4.61.3-4 2.64-7.94 4.34-11.53 8.41-16.44 22.83-29 39.76-36.15 14.07-5.92 29.86-9.08 45.14-8.54z" fill="#061a32"/><path d="M144.04 10.88c2.23 3.16 3.56 6.88 5.66 10.16-4.27-.83-6.5-6.22-5.66-10.16z" fill="#51bdf6"/><path d="M135.49 11.34c-.02 2.62.16 5.12.76 7.67-4.99 2.38-9.7 5.06-14.28 8.14-1.31-3.92-.58-7.78-.96-12.1-2.34-.14-4.62-.2-6.92.4-2.74.76-5.47 1.54-8.21 2.32-3.74.97-7.35 2.31-10.87 3.93a79.695 79.695 0 0 0-7.75 3.97c-2.5 1.43-4.89 3.06-7.2 4.78-2.5 1.79-4.84 3.72-7.02 5.88-7.66 6.93-13.81 15.48-18 24.91l2.03.13c-2.21.67-4.41 1.33-6.66 1.84 6.49-18.36 20.82-33.15 38.26-41.56 14.12-6.88 31.15-10.62 46.82-10.31z" fill="#809fb9"/><path d="M121.01 15.05c.38 4.32-.35 8.18.96 12.1a138.82 138.82 0 0 0-5.76 4.2c-2.87-4.82.34-11.33-2.12-15.9 2.3-.6 4.58-.54 6.92-.4z" fill="#94aac5"/><path d="M114.09 15.45c2.46 4.57-.75 11.08 2.12 15.9-2.4 1.89-4.71 3.94-6.98 5.98-2.66-3.76-.41-6.89-.99-11-.44-2.92-.51-5.34.25-8.22-.87-.12-1.74-.23-2.61-.34 2.74-.78 5.47-1.56 8.21-2.32z" fill="#a1b4cb"/><path d="M105.88 17.77c.87.11 1.74.22 2.61.34-.76 2.88-.69 5.3-.25 8.22.58 4.11-1.67 7.24.99 11-3.03 2.79-5.82 5.79-8.58 8.84-1.04-.42-2.67-.51-3.39-1.43-.24-2.23.04-4.52.07-6.75.25-4.73-.46-9.35.25-14.07.33-1.5-1.51-1.88-2.57-2.22 3.52-1.62 7.13-2.96 10.87-3.93z" fill="#b4c3d6"/><path d="M95.01 21.7c1.06.34 2.9.72 2.57 2.22-.71 4.72 0 9.34-.25 14.07-.03 2.23-.31 4.52-.07 6.75.72.92 2.35 1.01 3.39 1.43-4.09 4.5-7.71 9.5-11.12 14.53-2.12-1.96-1.48-4.12-1.57-6.7.15-8-.05-16 .1-24-.04-1.56.13-2.97-.8-4.33 2.52-1.46 5.1-2.8 7.75-3.97z" fill="#c9d4e1"/><path d="M139.02 21.33c1.84 1.61 3.45 3.44 4.96 5.37-13.35 13.03-23.8 29.56-29.03 47.51-2.75-.23-4.44-2.17-7.07-2.86-3.52-.87-7.34-.75-10.89-.08-2.51.45-4.75 1.39-7.35.91.95-4.2 3.62-8.07 5.75-11.78 10.44-16.62 25.77-30.8 43.63-39.07z" fill="#1b3752"/><path d="M138.94 23.53c.8 1.08 1.55 2.18 2.29 3.29-2.34 2.36-4.62 4.78-6.78 7.32-.77-.87-1.38-2.58-2.55-2.93-2.46.11-4.88 1.88-6.83 3.25-1.73 1.23-3.35 2.61-4.91 4.05-2.81 2.52-5.57 5.06-7.97 7.99-2.82 3.22-5.59 6.47-8.05 9.98-2.86 4.03-5.93 8.03-8.23 12.41l1.01.48c-1.4.24-2.8.47-4.21.69 3.44-8.26 9.02-15.78 14.81-22.56 8.73-9.74 19.46-18.55 31.42-23.97z" fill="#7ea4b7"/><path d="M87.26 25.67c.93 1.36.76 2.77.8 4.33-.15 8 .05 16-.1 24 .09 2.58-.55 4.74 1.57 6.7-1.22 1.89-2.37 3.8-3.53 5.73-1.44-1.75-2.97-3.36-4.85-4.65-.11-8.59-.27-17.16-.1-25.78-.03-2 .23-3.81-.99-5.55 2.31-1.72 4.7-3.35 7.2-4.78z" fill="#d8e0eb"/><path d="M146.47 28.67c-.51 2.29-2.26 4.34-3.31 6.45-4.89 9.44-5 21.83.82 30.9.98 1.9 2.32 3.49 1.79 5.74-2.29 1.21-4.32-1.27-6.27-2.25-3.69-2.7-8.75-1.43-12.5.46-2.87 1.28-5.18 3.82-8.22 4.24-.03-3.24 1.76-6.53 2.84-9.55 4.93-12.14 11.59-24.78 20.94-34.09 1.27-1.02 2.04-2.53 3.91-1.9z" fill="#183652"/><path d="M80.06 30.45c1.22 1.74.96 3.55.99 5.55-.17 8.62-.01 17.19.1 25.78-2.05-.93-4.15-1.61-6.33-2.13l.9-1.27c-.88-.28-1.75-.57-2.62-.85-.63-7.05.05-14.18-.06-21.2 2.18-2.16 4.52-4.09 7.02-5.88z" fill="#e8edf2"/><path d="M131.9 31.21c1.17.35 1.78 2.06 2.55 2.93-2.51 3-4.78 6.2-7.04 9.39-2.18-2.9-.38-6.32-2.34-9.07 1.95-1.37 4.37-3.14 6.83-3.25z" fill="#9bafc8"/><path d="M147.94 32.79c-.54 2.09-1.33 4.09-2.09 6.11-2.17 5.7-2.55 12.13-1.63 18.12.52 3.59 2.36 6.63 3 10.21-1.31-.77-1.92-1.58-2.55-2.94-4.16-7.97-4.11-17.94-.4-26.06.98-2.07 1.73-4.09 3.67-5.44z" fill="#51bdf6"/><path d="M125.07 34.46c1.96 2.75.16 6.17 2.34 9.07-1.73 2.61-3.34 5.3-4.95 7.99-3.42-3.81-.63-8.25-2.3-13.01 1.56-1.44 3.18-2.82 4.91-4.05z" fill="#afbfd3"/><path d="M140.72 35.27c-3.14 7.61-4.12 15.73-1.95 23.75.9 4.02 3 7.31 5.01 10.82-3.06-1.97-5.65-3.92-9.5-3.91.76-5.04.23-9.84.42-14.93-.03-2.33.32-4.42-.58-6.61 1.97-3.22 4.27-6.16 6.6-9.12z" fill="#a8b9d1"/><path d="M73.04 36.33c.11 7.02-.57 14.15.06 21.2.87.28 1.74.57 2.62.85l-.9 1.27c-6.05-.54-11.91.12-17.75 1.72l-2.03-.13c4.19-9.43 10.34-17.98 18-24.91z" fill="#fbfcfd"/><path d="M120.16 38.51c1.67 4.76-1.12 9.2 2.3 13.01-3.09 5.43-5.59 11.13-7.79 16.97a30.25 30.25 0 0 1-1.69-2.54c-.38-5.63.11-11.32-.12-16.96a7.44 7.44 0 0 0-.67-2.49c2.4-2.93 5.16-5.47 7.97-7.99z" fill="#c8d4e1"/><path d="M211.08 40.24c6.38-1.13 11.96 3 15.76 7.67l-.6 1.06c-2.36-1.95-4.96-5.16-8.24-5.07-.23 2.01-.24 4.03-.18 6.05.86.78 1.71 1.56 2.55 2.35-1.25.25-2.51.44-3.77.63-.47-4.96-4.21-8.27-5.52-12.69z" fill="#f8fafb"/><path d="M218 43.9c3.28-.09 5.88 3.12 8.24 5.07-1.85 1.29-3.78 2.46-5.87 3.33-.84-.79-1.69-1.57-2.55-2.35-.06-2.02-.05-4.04.18-6.05z" fill="#e0e5e8"/><path d="M134.12 44.39c.9 2.19.55 4.28.58 6.61-.19 5.09.34 9.89-.42 14.93-1.06.12-2.12.26-3.18.43-2.91-4.13.08-9.14-2.08-13.03 1.51-3.08 3.25-6.04 5.1-8.94z" fill="#c9d4e2"/><path d="M230.89 46.11c.16 3.44-2.04 5.24-3.69 7.98 2.41-1.18 3.5-3.29 5.01-5.37 3.28 1.66 2.93 4.91 3.56 8.05.71-1.74 1.02-3.53 1.28-5.38 7.02 2.96 11 10.01 13.85 16.7 5.7 13.04 5.87 28.15 3.99 42.04-1.52-1.93-2.87-3.99-4.15-6.08 1.01-8.73.78-17.63-1.44-26.16-1.92-7.01-5.32-13.86-11.29-18.26-2.29 1.84-4.28 2.91-7.15 3.64.73 2.12 1.82 4.05 2.76 6.07 2.42 5.57 3.33 11.64 2.9 17.68-.28 1.16.19 3.53-1.47 3.53-.91-.62-1.31-1.47-1.21-2.53.26-7.63-.05-16.65-4.71-23.08-2.39 1.22-4.23 1.42-6.89 1.23-.79 4.48-1.21 8.62-4.15 12.31-2.1-2.58-4.22-5.03-7.01-6.91 1.51-2.32 2.96-4.67 4.19-7.16 1.59-.25 3.18-.51 4.76-.81-1.45-.39-3-.63-4.37-1.25-1.42-1.18-2.06-2.78-2.37-4.56 2.99.14 5.77.2 8.52-1.16-1.79-.21-6.03 1.23-6.73-.92 3.61-.99 6.95-1.3 10.12-3.48 2.54-1.58 3.86-3.86 5.69-6.12z" fill="#1899e7"/><path d="M112.19 46.5c.37.81.6 1.64.67 2.49.23 5.64-.26 11.33.12 16.96.52.87 1.08 1.72 1.69 2.54-.42 1.1-.85 2.21-1.28 3.31-2.33-1.43-4.64-2.38-7.33-2.87-.51-1.96-.96-3.89-.89-5.92-.17-2.39.57-4.55-1.03-6.53 2.46-3.51 5.23-6.76 8.05-9.98z" fill="#e2e8f0"/><path d="M129.02 53.33c2.16 3.89-.83 8.9 2.08 13.03-3.58.91-6.53 2.77-9.7 4.57 2.17-6.03 4.7-11.89 7.62-17.6z" fill="#f0f3f6"/><path d="M231.16 55.91c-1.22 3.92-8.37 6.67-11.38 3.52 4.12-.43 7.6-1.99 11.38-3.52z" fill="#51bef6"/><path d="M104.14 56.48c1.6 1.98.86 4.14 1.03 6.53-.07 2.03.38 3.96.89 5.92-3.11-.34-6.08-.15-9.14.44l-1.01-.48c2.3-4.38 5.37-8.38 8.23-12.41z" fill="#fcfdfd"/><path d="M172.88 61.2l-1.93 1.19c-3.43-.6-6.44-1.99-9.93-2.26-3.83-.28-7.28-.78-10.41 1.9-.14-.82-.27-1.64-.39-2.46 7.35-1.67 16.44-4.18 22.66 1.63z" fill="#60c8fb"/><path d="M242.13 58.16c3.46 2.52 5.5 6.6 7.37 10.36 4.56 9.72 5.35 20.16 4.24 30.72-1.55-.57-1.01-2.91-1.21-4.24-.23-9.2-1.75-18.65-5.31-27.18-1.36-3.43-3.64-6.3-5.09-9.66z" fill="#52bef7"/><path d="M180.48 64.54c3.12 2.37 4.3 5.62 5.49 9.19l-1.76.28c-1.18-2.57-2.02-5.02-4.28-6.9-2.45-2.24-5.3-2.81-8.36-3.81 3.08-1 6.3-.76 8.91 1.24z" fill="#54b9ec"/><path d="M238.11 62.28c1.13 1.08 2.19 2.21 3.15 3.45-.99.62-1.97 1.26-2.95 1.9.27 2.97 1.38 5.64 2.32 8.44.37 1.32.76 2.64 1.09 3.97.72 4.91.78 9.76-1.07 14.44-.89-.83-1.79-1.63-2.69-2.44 1.58-9.77.41-18.36-4.13-27.13 1.36-.98 2.8-1.85 4.28-2.63z" fill="#7fa6ba"/><path d="M193.36 65.62c3.13 1.62 4.41 4.89 6.48 7.62 6.45-2 12.05 1.36 15.32 6.82l-1.81.41c-3.31-3.58-7.35-4.23-11.92-5.02-4.62-.32-6.46-7.6-11.4-7.9-1.16.24-2.31.53-3.46.85l-.78-1.51c2.11-1.75 5.01-2.4 7.57-1.27z" fill="#60c8fc"/><path d="M241.26 65.73a33.1 33.1 0 0 1 4.09 7.03c-1.42.45-2.83.94-4.22 1.49l-.5 1.82c-.94-2.8-2.05-5.47-2.32-8.44.98-.64 1.96-1.28 2.95-1.9z" fill="#a6b8cf"/><path d="M224.29 68.52c1.51-.2 3.04-.26 4.56-.36 1.27 3.12 2.31 6.26 2.74 9.62-2.58 2.19-5.98 1.77-8.27 4.26-1.17-.6-2.32-1.23-3.46-1.88 2.53-3.64 3.4-7.43 4.43-11.64z" fill="#b6c6d7"/><path d="M70.05 68.93l2.35.09c-5.38 3.43-10.58 6.86-14.76 11.78a49.122 49.122 0 0 0-3.96 4.57c-3.69 4.75-6.03 10.11-8.54 15.52l-2.16.05c3.66-13.93 14.48-25.48 27.07-32.01z" fill="#54b9eb"/><path d="M72.4 69.02c3.48.51 7.14 1.52 8.17 5.35.96 2.81-1.41 6.36-.01 8.82-.31.17-.63.33-.94.49-.3-.8-.6-1.6-.9-2.41-7.04.04-14.05-.59-21.08-.47 4.18-4.92 9.38-8.35 14.76-11.78z" fill="#01539d"/><path d="M245.35 72.76c.73 1.68 1.31 3.42 1.82 5.19-.72.48-1.45.96-2.18 1.43-.96-.26-1.92-.52-2.88-.77l-.39 1.43c-.33-1.33-.72-2.65-1.09-3.97l.5-1.82c1.39-.55 2.8-1.04 4.22-1.49z" fill="#ccd7e3"/><path d="M137.02 74.2c3.42-.07 4.68 3.77 6.85 5.87-4.47-.65-9.51 1.67-13.77 2.97-3.16-.03-6.26-.42-9.35-.99 4.14-3.99 10.26-8.29 16.27-7.85z" fill="#01559f"/><path d="M104.03 77.89c3.15.49 5.7 1.88 7.96 4.1-6.96.58-14 .2-20.99.27-2.13.08-3.61-.47-5.41-1.5 5.65-2.49 12.29-3.88 18.44-2.87z" fill="#045da7"/><path d="M231.59 77.78c.25 3.29.39 6.59.44 9.89-2.96-1.87-5.5-4.17-8.71-5.63 2.29-2.49 5.69-2.07 8.27-4.26z" fill="#e7ecf2"/><path d="M242.11 78.61c.96.25 1.92.51 2.88.77.73-.47 1.46-.95 2.18-1.43 2.26 8.07 2.38 16.29 1.86 24.61-3.48-1.22-5.42-5.81-8.38-8.08 1.85-4.68 1.79-9.53 1.07-14.44l.39-1.43z" fill="#fff"/><path d="M57.64 80.8c7.03-.12 14.04.51 21.08.47.3.81.6 1.61.9 2.41.31-.16.63-.32.94-.49 1.66-.84 3.32-1.69 5.03-2.43 1.8 1.03 3.28 1.58 5.41 1.5 6.99-.07 14.03.31 20.99-.27 1.25 1.55 2.26 3.24 3.24 4.96-12.73-.44-25.49-.22-38.23-.31-2.35-.06-4.66-.42-7-.63-5.51-.48-10.83.15-16.32-.64 1.23-1.6 2.54-3.13 3.96-4.57z" fill="#0e7cc8"/><path d="M120.75 82.05c3.09.57 6.19.96 9.35.99-4.47 1.94-8.06 4.9-13.16 3.2 1.22-1.45 2.4-2.91 3.81-4.19z" fill="#0d7ac7"/><path d="M152 83.53c5.9.31 9.92 3.37 15.34 5.11 4.93 1.67 9.57 3.99 14.57 5.49 3.73 1.08 7.08 3 10.74 4.27 7.86 2.59 15.03 6.67 23.02 8.96 2.64.68 4.51 2.35 6.76 3.77.45.12.9.23 1.35.33 3.61.36 7.16 1.9 10.45 3.34 3 2.45 5.29 5.94 6.88 9.44-1.18.19-1.99.33-3.1-.21-7.26-2.79-14.2-6.19-21.65-8.48-18.01-7.46-36.34-14.03-54.38-21.4-.85.36-1.69.73-2.53 1.11-4.44-4.06-9.4-7.15-15.34-8.46-.75-.51-1.49-1.04-2.22-1.59 3.26-1.03 6.69-1.61 10.11-1.68z" fill="#138ad8"/><path d="M224.02 84.96c2.45 1.32 5.44 2.6 7.24 4.77l-2.31.64c-5.23-2.96-8.83-6.99-15.23-6.92 3.72-1.41 6.96-.14 10.3 1.51z" fill="#4cb0e5"/><path d="M144.11 86.8c5.94 1.31 10.9 4.4 15.34 8.46l.54.48-.82-.02c-2.22-1.74-4.25-3.59-6.86-4.76-5.36-2.85-11.47-3.8-17.31-1.88-3.78 1.03-5.95 4.09-10.01 4.28-6.26.84-10.89 5.03-13.91 10.36 4.06 2.46 5.71 4.59 7.47 8.98 1.47-4.99 2.76-11.79 7.24-14.93 3.89-2.93 8.73-4.36 13.58-4.31-6.05 1.14-12.45 3.37-15.45 9.2 3.99 2.3 5.48 3.97 7.37 8.17.5 1.79 2.57 1 3.07-.25 1.28-3.19 2.45-6.43 3.53-9.7 1.41-3.48 4.82-4.82 8.09-6.02.75.22 1.5.45 2.25.67-4.19.55-7.04 2.51-9.05 6.21 4 2.21 5.76 3.98 7.97 7.97.51-.19 1.01-.38 1.51-.56l.74 1.71c1.15-.92 2.29-1.84 3.43-2.77l.72 1.5 1.74-1.74c6.73.92 13.57 1.55 20.24 2.8 1.7.44 1.19 1.99 1.66 3.36.48 3.54 3.96 5.85 7.05 7.05.12 5.97-1.35 11.97-1.98 17.92-.65 4.33-.8 8.43-2.23 12.61-1.18-1.71-2.37-3.41-3.53-5.13 1.01-6.47 1.85-12.97 2.72-19.46.58-2.17-1.81-3.97-3.19-5.29-1.06 6.37-1.64 12.81-2.78 19.18a51.98 51.98 0 0 0-4.44-1.04c.51-3.95 1.04-7.89 1.53-11.85.62-4.34 1.52-8.59 1.64-13-3.89-.8-7.8-1.2-11.72-1.76-2.76-.41-5.48-.86-8.28-.97-1.41.73-2.79 1.49-4.2 2.19-2.43-.14-3.91-.81-5.64 1.31-1.46 1.26-3.55 4.75-5.7 2.77-.87-1.22-1.54-2.61-2.25-3.92-2.11.47-4.04.65-6.2.5-1.67 1.54-3.17 3.53-5.12 4.69-2.08.97-3.09-2.17-4.14-3.43-1.43-.06-3-.41-4.4-.09-1.99 1.77-3.37 3.82-6.01 4.73-3.14-3.05-3.25-6.53-2.55-10.62l.57-1.27c.45-1.01.91-2 1.38-3-5.08-.95-10.24-1.5-15.37-2.13-3.4-.57-6.73-1.28-10.21-1.18-.67 4.11-1.19 8.24-1.72 12.38-.57 4.06-1.1 8.14-1.69 12.2-1.55-.24-3.1-.46-4.66-.66 1-8.08 2.08-16.16 3.2-24.23.25-1.41.38-2.97 1.02-4.26 1-1.32 3.3-.55 4.72-.48 8.66 1.21 17.31 2.44 25.98 3.58 2.88-3.76 5.96-7.08 10.46-8.87 3.39-1.5 6.91-.88 10.1-2.91 4.59-2.55 9.33-3.48 14.56-2.77z" fill="#112943"/><path d="M152.31 90.96c-1.97 1.79-3.77 3.06-6.33 3.9-3.27 1.2-6.68 2.54-8.09 6.02-1.08 3.27-2.25 6.51-3.53 9.7-.5 1.25-2.57 2.04-3.07.25-1.89-4.2-3.38-5.87-7.37-8.17 3-5.83 9.4-8.06 15.45-9.2-4.85-.05-9.69 1.38-13.58 4.31-4.48 3.14-5.77 9.94-7.24 14.93-1.76-4.39-3.41-6.52-7.47-8.98 3.02-5.33 7.65-9.52 13.91-10.36 4.06-.19 6.23-3.25 10.01-4.28 5.84-1.92 11.95-.97 17.31 1.88z" fill="#1797e5"/><path d="M152.31 90.96c2.61 1.17 4.64 3.02 6.86 4.76-2.43 4.06-3.61 7.39-3.88 12.13l-1.74 1.74-.72-1.5c-1.14.93-2.28 1.85-3.43 2.77l-.74-1.71c-.53-4.13 2.41-8.5 3.22-12.56-1.21-.36-2.43-.72-3.65-1.06-.75-.22-1.5-.45-2.25-.67 2.56-.84 4.36-2.11 6.33-3.9z" fill="#0e7bc7"/><path d="M231.53 91.85c4.14 3.48 8.05 7.34 12.34 10.62-4.04 1.6-6.65 6.17-4.64 10.32.66-4.44 2.03-6.87 6.47-8.17 2.48 3.29 4.65 7.66 8.18 9.88l.31.4c-2.4.31-4.71.02-6.65 1.66-2.9 2.39-3.5 6.03-3.63 9.58-.53.22-1.06.45-1.59.67-.4-.86-.8-1.71-1.21-2.57-1.59-3.5-3.88-6.99-6.88-9.44-3.29-1.44-6.84-2.98-10.45-3.34-1.08-3.68-2.49-9.25-.83-12.81 2.79-.23 5.19 4.3 7.78 5.03l1.13-.8c.02-2.99-2.31-6.39-1.68-9.77.2-.56.65-.98 1.35-1.26z" fill="#1797e5"/><path d="M231.53 91.85c1.04.02 2.08.18 3.11.49 4.07 2.47 7.87 5.7 10.66 9.59l-1.43.54c-4.29-3.28-8.2-7.14-12.34-10.62z" fill="#58c0f4"/><path d="M161.98 94.15c18.04 7.37 36.37 13.94 54.38 21.4 7.45 2.29 14.39 5.69 21.65 8.48 1.11.54 1.92.4 3.1.21.41.86.81 1.71 1.21 2.57.53-.22 1.06-.45 1.59-.67.17 1.37.37 2.73.56 4.1.15 1.32.41 2.61.71 3.91-1.2.21-2.03.45-3.17-.12-20.52-8.35-41.32-16.04-61.91-24.19-4.22-1.96-8.17-3.62-12.74-4.62-2.52-3.18-4.04-6.88-7.37-9.48l-.54-.48c.84-.38 1.68-.75 2.53-1.11z" fill="#0e7dc9"/><path d="M148.23 95.53c1.22.34 2.44.7 3.65 1.06-.81 4.06-3.75 8.43-3.22 12.56-.5.18-1 .37-1.51.56-2.21-3.99-3.97-5.76-7.97-7.97 2.01-3.7 4.86-5.66 9.05-6.21z" fill="#1289d6"/><path d="M159.17 95.72l.82.02c3.33 2.6 4.85 6.3 7.37 9.48 4.57 1 8.52 2.66 12.74 4.62 20.59 8.15 41.39 15.84 61.91 24.19 1.14.57 1.97.33 3.17.12.73 2.23 1.46 4.45 1.92 6.76-6.68-1.53-13.02-4.66-19.35-7.22.36-.8.7-1.62 1.01-2.44-1.73 1.17-2.95 2.67-4.14 4.37-2.11-.44-4.24-.72-6.39-.95-4.76-2.79-10.23-4.29-15.28-6.53-5.1-1.79-10.06-3.88-15.1-5.79-.95-.64-1.88 1.1-2.62 1.58-.35-.95-.68-1.91-.99-2.87-3.09-1.2-6.57-3.51-7.05-7.05-.47-1.37.04-2.92-1.66-3.36-6.67-1.25-13.51-1.88-20.24-2.8.27-4.74 1.45-8.07 3.88-12.13z" fill="#096db8"/><path d="M82.14 102.82c3.48-.1 6.81.61 10.21 1.18-1.47 6.6-5.38 9.96-11.93 11.2.53-4.14 1.05-8.27 1.72-12.38z" fill="#3d0000"/><path d="M39.89 103.73l2.43.57c-2.25 5.11-3.27 9.04-2.16 14.69-2.28-.65-3.28-1.47-3.41-3.97.16-3.86 1.64-7.76 3.14-11.29z" fill="#61cafd"/><path d="M92.35 104c5.13.63 10.29 1.18 15.37 2.13-.47 1-.93 1.99-1.38 3-3.7-.62-7.58-1.5-11.31-1.51-1.46 2.42-2.52 4.84-4.78 6.65-2.05 1.8-5.16 2.26-7.74 3.01-.25 3.45-1.68 7.6-.37 10.85-1.13-.27-2.27-.52-3.41-.73.59-4.06 1.12-8.14 1.69-12.2 6.55-1.24 10.46-4.6 11.93-11.2z" fill="#d01111"/><path d="M35.43 104.89c-.58 1.64-1.19 3.26-1.88 4.86-6.47 1.47-12.14 7.21-13.5 13.76-2.13-1.96-.79-4.14.17-6.29 3.02-5.75 9.39-9.83 15.21-12.33z" fill="#5be"/><path d="M140.1 104.77c2.05.75 3.52 3.31 4.59 5.09-2.63 1.59-4.58 3.82-6.79 5.89-1.38-4.03.08-7.57 2.2-10.98z" fill="#eff2f5"/><path d="M245.7 104.62l1.22.18c3.01 2.49 5.12 6.3 6.96 9.7-3.53-2.22-5.7-6.59-8.18-9.88z" fill="#47a4d7"/><path d="M111.27 106.21c1.93 1.32 3.18 3.15 4.64 4.94-2.62 1.76-4.75 4-7.03 6.16-1.28-4.03.1-7.78 2.39-11.1zM124.16 105.93c1.63-.41 3.66 3.36 4.81 4.33-2.37 2.06-4.55 4.32-6.97 6.33-.96-3.93.07-7.34 2.16-10.66z" fill="#eef1f3"/><path d="M95.03 107.62c3.73.01 7.61.89 11.31 1.51l-.57 1.27c-2.86-.03-5.64-.67-8.47-.86-1.52 1.25-2.42 3.5-3.8 4.98-2.16 2.62-4.99 3.44-7.97 4.76-.35 2.99-.4 5.85-1.64 8.6l-1.75.25c-1.31-3.25.12-7.4.37-10.85 2.58-.75 5.69-1.21 7.74-3.01 2.26-1.81 3.32-4.23 4.78-6.65z" fill="#380000"/><path d="M97.3 109.54c2.83.19 5.61.83 8.47.86-.7 4.09-.59 7.57 2.55 10.62 2.64-.91 4.02-2.96 6.01-4.73 1.4-.32 2.97.03 4.4.09 1.05 1.26 2.06 4.4 4.14 3.43 1.95-1.16 3.45-3.15 5.12-4.69 2.16.15 4.09-.03 6.2-.5.71 1.31 1.38 2.7 2.25 3.92 2.15 1.98 4.24-1.51 5.7-2.77 4.5.45 9.05.96 13.5 1.77 1.14 1.13 1.11 3.6 1.79 5.09 1.58 4.13 4.95 5.65 8.67 7.43-.23 3.13-.65 6.22-1.18 9.32-6.01-.91-12.04-1.57-18.04-2.51.18-2.92 1.06-5.84 1.02-8.75-1.07-1.34-3.47-1.52-5.06-1.92-1.06 0-2.11.06-3.16.16-.59.07-1.18.13-1.78.19-1.71-1.51-3.77-1.43-5.91-1.79-10.65-1.36-21.37-3.11-32.04-4.18-2.43 1.36-1.73 6.75-2.37 9.24-3.21-.18-6.4-.5-9.58-.96-1.38-.28-2.74-.64-4.11-.98 1.24-2.75 1.29-5.61 1.64-8.6 2.98-1.32 5.81-2.14 7.97-4.76 1.38-1.48 2.28-3.73 3.8-4.98z" fill="#c91111"/><path d="M33.55 109.75c-.76 2.17-1.88 3.69-3.45 5.32-2.66 2.77-4.3 6.08-6.01 9.46-1.35-.33-2.7-.65-4.04-1.02 1.36-6.55 7.03-12.29 13.5-13.76z" fill="#1797e5"/><path d="M151.98 112.27c2.8.11 5.52.56 8.28.97.06 2.91-.14 5.5 1.43 8.08 1.99 3.48 5.16 5.06 8.65 6.68-.49 3.96-1.02 7.9-1.53 11.85l-1.84-.22c.43-3.53 1.14-7.07 1.3-10.63-1.76-1.69-4.83-1.75-6.63-3.65-2.88-2.53-3.16-5.7-3.68-9.27-3.39-.56-6.79-1.06-10.18-1.62 1.41-.7 2.79-1.46 4.2-2.19z" fill="#cd1111"/><path d="M160.26 113.24c3.92.56 7.83.96 11.72 1.76-.12 4.41-1.02 8.66-1.64 13-3.49-1.62-6.66-3.2-8.65-6.68-1.57-2.58-1.37-5.17-1.43-8.08z" fill="#3d0000"/><path d="M147.78 114.46c3.39.56 6.79 1.06 10.18 1.62.52 3.57.8 6.74 3.68 9.27 1.8 1.9 4.87 1.96 6.63 3.65-.16 3.56-.87 7.1-1.3 10.63-.69-.08-1.37-.16-2.05-.25.53-3.1.95-6.19 1.18-9.32-3.72-1.78-7.09-3.3-8.67-7.43-.68-1.49-.65-3.96-1.79-5.09-4.45-.81-9-1.32-13.5-1.77 1.73-2.12 3.21-1.45 5.64-1.31z" fill="#4c0404"/><path d="M33 117.73c.71.84 1.4 1.7 2.13 2.53-2.04.86-3.49 1.5-4.19 3.75-1.57 5-.18 11.27 1.22 16.2l-1.16.93c-2.42-1.09-3.08-4.77-3.53-7.13-1.11-6.15 1.39-11.83 5.53-16.28z" fill="#60cbfe"/><path d="M249.35 118.38c3.77-1.87 7.19.71 8.92 3.99-.43 2.89.91 4.98 1.73 7.62.86 2.47 1.4 4.97 1.88 7.54-4.33.21-5.95 4.95-7.6 8.23 1.87-2.1 3.49-5.14 5.99-6.48 1.75-.76 2.88 1.96 3.43 3.19-1.41 3.36-.42 7.6-.7 11.2-3.92 1.79-6.69 6.62-8.15 10.52 2.88-1.82 4.77-4.67 7.62-6.55.76 3.62-.31 6.7-.92 10.24-1.03 4.44-2.64 8.7-3.62 13.15h1.97c-1.24 1.86-2.27 3.47-4.62 3.92-2.32-5.33-2.66-10.49-7.66-14.19.13-5.17 2.07-9.63.85-14.87-.11-1.9-.09-3.79-.14-5.69-.12-3.13-.56-6.23-1.23-9.29-.46-2.31-1.19-4.53-1.92-6.76-.3-1.3-.56-2.59-.71-3.91.64-3.76 1.2-9.71 4.88-11.86z" fill="#1797e5"/><path d="M99.95 120.58c10.67 1.07 21.39 2.82 32.04 4.18 2.14.36 4.2.28 5.91 1.79-.38.89-.94 1.54-1.68 1.95-4.95.11-9.9-1.47-14.86-1.83-4.48-.63-8.94-1.27-13.43-1.73-1.32-.11-4.49-1.56-5.32-.5-1.67 10.57-2.68 21.34-4.35 31.95-.11 1.28.31 2.18.85 3.32-.53.39-1.08.77-1.63 1.14-1.21-.68-2.43-1.36-3.66-2.01.08-1.9.14-3.8.19-5.71-4.89-.85-9.82-1.56-14.75-2.12l-2.6-.23c-.39.78-.77 1.57-1.14 2.36-.18-.95-.37-1.9-.57-2.84-1.34-.15-2.69-.29-4.03-.44-.57.81-1.14 1.62-1.72 2.42-.77-1.5-2.44-3.42-1.95-5.2.99-5.33 1.63-10.7 2.33-16.07.29-1.32.19-3.49 1.4-4.32 1.03-.06 2.06-.04 3.09.05 1.56.2 3.11.42 4.66.66 1.14.21 2.28.46 3.41.73-1.45 1.46-1.91 2.61-4.25 2.44-1.63-.2-3.24-.46-4.86-.69-.51 3.03-.94 6.07-1.28 9.13-.31 2.19-.62 4.36-.65 6.58 2.85.35 5.71.63 8.56.99 2.46.35 4.93.63 7.4.93 2.4.57 4.68.84 7.15.76-.62-1.66-3.54-1.42-5.07-1.88 2-.07 4-.13 5.99-.16.56-3.77 1.26-7.29 1.16-11.11-1.82-.28-3.62-.59-5.44-.82 1.81-.23 3.63-.36 5.45-.55-1.78-1.1-3.69-1.2-5.71-1.42-1.32-.17-2.65-.34-3.97-.52.46-.99.92-1.97 1.38-2.95 3.18.46 6.37.78 9.58.96.64-2.49-.06-7.88 2.37-9.24z" fill="#4d1900"/><path d="M184.24 121.06c.31.96.64 1.92.99 2.87.62.98 1.5 1.93 1.83 3.05.44 4.87-.5 10.11-.74 15.02-.18 3.63-.48 7.23-.95 10.84.84.12 1.68.24 2.51.35-2.04.57-3.93 1.29-5.84 2.2-.62-1.29-1.27-2.57-2.01-3.8 1.43-4.18 1.58-8.28 2.23-12.61.63-5.95 2.1-11.95 1.98-17.92z" fill="#003b82"/><path d="M176.03 121.71c1.38 1.32 3.77 3.12 3.19 5.29-.87 6.49-1.71 12.99-2.72 19.46-1.23-1.83-2.45-3.5-3.25-5.57 1.14-6.37 1.72-12.81 2.78-19.18z" fill="#e0e0df"/><path d="M187.85 122.35c5.04 1.91 10 4 15.1 5.79 5.05 2.24 10.52 3.74 15.28 6.53-.67 1.41-2.75 2.95-1.76 4.56 5.16 1.31 9.87 3.65 14.88 5.39 4.62 1.64 9.1 3.6 13.66 5.4 1.14.56 2.12.32 3.32.18.05 1.9.03 3.79.14 5.69-.79-.24-1.59-.47-2.39-.69-.66-.82-1.37-1.61-2.11-2.35-7.27-1.57-13.95 2.2-18.79 7.32-2.17 2.55-5.05 3.43-8.1 4.53-3.02-.54-3.43-2.9-5.05-5.06 1.84-3.57 2.99-7.64 3.1-11.66.13-2.14-2.35-3.69-3.7-5.09-2.18-2.01-5.79-1.55-8.43-.91-6.13 1.78-11.01 6.56-15.12 11.21-.83-.11-1.67-.23-2.51-.35.47-3.61.77-7.21.95-10.84.24-4.91 1.18-10.15.74-15.02-.33-1.12-1.21-2.07-1.83-3.05.74-.48 1.67-2.22 2.62-1.58z" fill="#01559e"/><path d="M258.27 122.37c2.94 5.18 4.88 11.1 6.17 16.89-.86-.57-1.71-1.15-2.56-1.73-.48-2.57-1.02-5.07-1.88-7.54-.82-2.64-2.16-4.73-1.73-7.62z" fill="#50b1e4"/><path d="M102.61 124.44c.83-1.06 4 .39 5.32.5 2.67 1 6.36 1.04 8.45 3.06-4.18.34-8.23-.27-12.33-.98-.81 2.41-1.14 4.23-.69 6.79.39-1.34.78-2.66 1.42-3.91.65 5.2-.91 10.61-1.35 15.83 3.46-3.3 6.74-6.81 10.03-10.26 2.7-2.94 5.65-5.46 7.9-8.8 4.96.36 9.91 1.94 14.86 1.83.74-.41 1.3-1.06 1.68-1.95.6-.06 1.19-.12 1.78-.19-.58.65-1.15 1.31-1.7 1.98-2.37 1.03-4.81.53-7.14 1.4-1.69 1.12-3.02 2.68-4.39 4.16.91 1.6 2.05 3.31 2.51 5.09-.3 2.03-1.18 3.72-2.16 5.5l-1.37 1.06c-.02.87-.03 1.74-.02 2.6l-1.38.29c-.16-1.22-.32-2.44-.47-3.67 1.84-1.3 3.53-2.21 3.61-4.75.76-3.94-3.42-7.37-7.12-5.95-2.8.97-3.63 3.27-4.04 5.98-3.62 3.37-7.04 6.93-10.59 10.37-2.38 2.26-4.01 4.7-7.16 5.97 1.67-10.61 2.68-21.38 4.35-31.95z" fill="#f6c878"/><path d="M107.93 124.94c4.49.46 8.95 1.1 13.43 1.73-2.25 3.34-5.2 5.86-7.9 8.8-3.29 3.45-6.57 6.96-10.03 10.26.44-5.22 2-10.63 1.35-15.83-.64 1.25-1.03 2.57-1.42 3.91-.45-2.56-.12-4.38.69-6.79 4.1.71 8.15 1.32 12.33.98-2.09-2.02-5.78-2.06-8.45-3.06z" fill="#f7ae2d"/><path d="M139.68 126.36c1.05-.1 2.1-.16 3.16-.16 1.59.4 3.99.58 5.06 1.92.04 2.91-.84 5.83-1.02 8.75 6 .94 12.03 1.6 18.04 2.51.68.09 1.36.17 2.05.25l1.84.22c1.5.28 2.97.63 4.44 1.04.8 2.07 2.02 3.74 3.25 5.57 1.16 1.72 2.35 3.42 3.53 5.13.74 1.23 1.39 2.51 2.01 3.8.19.4.38.8.56 1.2-1.16 1.18-2.31 2.38-3.49 3.55.03-1.06.04-2.12.03-3.18l-.65-1.06c-2.12-3.61-4.5-7.06-6.76-10.59-.79-1.01-1.21-2.24-2.69-2.26-7.33-.89-14.67-2.2-22.04-2.57 1.98 1.28 4.08 1.31 6.34 1.77l-1.32.36c-1.64.08-3.47-.36-5.03.15-.93 2.92-1.02 6.26-1.32 9.31.02 2.33 2.97 1.93 4.55 2.08l.7.38c-1.82.18-3.5.09-5.17.94 3.46.78 6.94 1.24 10.45 1.7 2.47.3 4.93.61 7.39.98 1.41.21 2.81.43 4.21.65.68.11 1.36.22 2.04.34.95 1.1 1.9 2.21 2.85 3.31-1.17.42-2.33.87-3.5 1.29-1-.71-2.01-1.35-3.1-1.92-.24 1.08-.48 2.15-.73 3.23-.1-.98-.23-1.94-.38-2.9l-1.61-.48-1.44-.34c-5.6-.98-11.3-1.69-16.95-2.39-2.02-.34-2.23.69-3.31 2.02l-.63-.64c.73-5.45 1.47-10.91 2.17-16.37.34-2.41.82-4.79 1.22-7.18.36-2.3.59-4.61.8-6.92-2.4-.6-4.81-1.13-7.25-1.51.55-.67 1.12-1.33 1.7-1.98z" fill="#4c1800"/><path d="M57.36 127.99c.89 1.04 1.56 2.22 2.27 3.39 3.03 1.79 5.09.88 7.04-1.79.64 2.44-1.86 3.64-3.73 4.37-2 .3-3.9-1.39-5.5-2.39-1.58 1.83-2.55 3.22-5.16 3.41 2.6-2.15 3.76-3.91 5.08-6.99z" fill="#185c8c"/><path d="M82.14 128.13l1.75-.25c1.37.34 2.73.7 4.11.98-.46.98-.92 1.96-1.38 2.95-2.91-.48-5.81-.9-8.73-1.24 2.34.17 2.8-.98 4.25-2.44z" fill="#6e3b24"/><path d="M66.67 129.59c-1.95 2.67-4.01 3.58-7.04 1.79 2.56-.08 4.64-1.19 7.04-1.79z" fill="#34acf1"/><path d="M137.98 128.34c2.44.38 4.85.91 7.25 1.51-.21 2.31-.44 4.62-.8 6.92-1.04-1.52-1.84.06-2.88.63l-.97.5c-.01-2.19.02-4.38.05-6.57-3.8.87-6.36-.23-9.79-1.59 2.33-.87 4.77-.37 7.14-1.4z" fill="#a65709"/><path d="M73.03 129.88c1.62.23 3.23.49 4.86.69 2.92.34 5.82.76 8.73 1.24 1.32.18 2.65.35 3.97.52-1.8.6-3.47.92-5.37.79-3.44-.65-6.75-1.38-10.28-.97l-.6.04a70.31 70.31 0 0 1-1.73 10.3c-.37-1.12-.65-2.28-.86-3.48.34-3.06.77-6.1 1.28-9.13z" fill="#dabe9e"/><path d="M130.84 129.74c3.43 1.36 5.99 2.46 9.79 1.59-.03 2.19-.06 4.38-.05 6.57 0 .57-.01 1.13-.02 1.69-5.12 2.94-8.39 8.38-13.25 11.81-.54-2.45-1.47-4.41-.51-6.91.98-1.78 1.86-3.47 2.16-5.5-.46-1.78-1.6-3.49-2.51-5.09 1.37-1.48 2.7-3.04 4.39-4.16z" fill="#f5ad2d"/><path d="M228.76 131.25c-.31.82-.65 1.64-1.01 2.44-1.49 1.99-1.78 4.01-2.06 6.42-1.45-1.64-2.39-3.61-4.79-3.84-2.17-.17-3.02 1.66-4.43 2.96-.99-1.61 1.09-3.15 1.76-4.56 2.15.23 4.28.51 6.39.95 1.19-1.7 2.41-3.2 4.14-4.37z" fill="#0d4472"/><path d="M74.34 132.19l.6-.04c.95.38 1.89.77 2.83 1.17-.33 2.48-1.26 4.7-.07 7.07-1.36 1.49-2.7 2.91-4.51 3.87l-.58-1.77c.84-3.45 1.4-6.76 1.73-10.3z" fill="#eb9b28"/><path d="M74.94 132.15c3.53-.41 6.84.32 10.28.97-2.6 2.33-5.12 4.74-7.52 7.27-1.19-2.37-.26-4.59.07-7.07-.94-.4-1.88-.79-2.83-1.17z" fill="#df8a23"/><path d="M90.59 132.33c2.02.22 3.93.32 5.71 1.42-1.82.19-3.64.32-5.45.55-1.34 1.3-2.45 2.84-3.7 4.23-2.74 2.48-5.39 4.98-7.49 8.05-2.85-.36-5.71-.64-8.56-.99.03-2.22.34-4.39.65-6.58.21 1.2.49 2.36.86 3.48l.58 1.77c1.81-.96 3.15-2.38 4.51-3.87 2.4-2.53 4.92-4.94 7.52-7.27 1.9.13 3.57-.19 5.37-.79z" fill="#dd974f"/><path d="M90.85 134.3c1.82.23 3.62.54 5.44.82.1 3.82-.6 7.34-1.16 11.11-1.99.03-3.99.09-5.99.16 1.53.46 4.45.22 5.07 1.88-2.47.08-4.75-.19-7.15-.76-1.03-.74-2.05-1.51-3.07-2.27 1.2-.2 2.39-.39 3.59-.59-.04-2.02.41-4.29-.43-6.12 1.25-1.39 2.36-2.93 3.7-4.23z" fill="#bb5315"/><path d="M120.05 134.07c3.7-1.42 7.88 2.01 7.12 5.95-.08 2.54-1.77 3.45-3.61 4.75.15 1.23.31 2.45.47 3.67-3.74.67-6.13 2.51-8.12 5.69l-1.54-.97c1.47-3.01 3.05-6.03 4.3-9.12l-1.16-1.31c-.52-.88-1.02-1.77-1.5-2.68.41-2.71 1.24-5.01 4.04-5.98z" fill="#4e1900"/><path d="M227.75 133.69c6.33 2.56 12.67 5.69 19.35 7.22.67 3.06 1.11 6.16 1.23 9.29-1.2.14-2.18.38-3.32-.18-4.56-1.8-9.04-3.76-13.66-5.4-5.01-1.74-9.72-4.08-14.88-5.39 1.41-1.3 2.26-3.13 4.43-2.96 2.4.23 3.34 2.2 4.79 3.84.28-2.41.57-4.43 2.06-6.42z" fill="#0663ad"/><path d="M102.25 136.08c1.42.54 1.11 3.48.44 4.51-1.36.08-.87-3.73-.44-4.51z" fill="#fabd50"/><path d="M144.43 136.77c-.4 2.39-.88 4.77-1.22 7.18-.93.43-1.85.86-2.77 1.28.26-2.62.71-5.21 1.11-7.83 1.04-.57 1.84-2.15 2.88-.63z" fill="#c8945f"/><path d="M87.15 138.53c.84 1.83.39 4.1.43 6.12-1.2.2-2.39.39-3.59.59 1.02.76 2.04 1.53 3.07 2.27-2.47-.3-4.94-.58-7.4-.93 2.1-3.07 4.75-5.57 7.49-8.05z" fill="#cd701c"/><path d="M116.01 140.05c.48.91.98 1.8 1.5 2.68-3.2 3.48-7.07 6.3-9.88 10.07-3.94 1.18-5.78 4.16-8.52 6.91-.54-1.14-.96-2.04-.85-3.32 3.15-1.27 4.78-3.71 7.16-5.97 3.55-3.44 6.97-7 10.59-10.37z" fill="#f8bb4f"/><path d="M140.56 139.59c-.05 3.61-1.32 7.28-2.01 10.87-6.06.5-9.26 5.24-11.28 10.44-2.05-2.02-.08-6.93.04-9.5 4.86-3.43 8.13-8.87 13.25-11.81z" fill="#f8cb7d"/><path d="M147 140.48c7.37.37 14.71 1.68 22.04 2.57 1.48.02 1.9 1.25 2.69 2.26 2.26 3.53 4.64 6.98 6.76 10.59-3.25-1.9-4.48-5.41-7.23-8.16-.65 3.78-1.24 7.56-1.42 11.4-.68-.12-1.36-.23-2.04-.34 1.04-4.54 1.13-9.19 2.04-13.74a17.57 17.57 0 0 0-4.11-.97c-2.16-.21-4.29-.49-6.42-.84-1.99-.36-3.96-.76-5.97-1-2.26-.46-4.36-.49-6.34-1.77z" fill="#d9b589"/><path d="M153.34 142.25c2.01.24 3.98.64 5.97 1-.88.41-1.75.83-2.62 1.26-.68 4.26-.06 8.46-.49 12.66-3.51-.46-6.99-.92-10.45-1.7 1.67-.85 3.35-.76 5.17-.94l-.7-.38c.7-3.84 1.6-7.61 1.8-11.54l1.32-.36z" fill="#bf5c18"/><path d="M101.28 143.2l.32.25c.87.95.78 3.18.12 4.23-1.54.15-.9-3.65-.44-4.48z" fill="#fabd4e"/><path d="M117.51 142.73l1.16 1.31c-1.25 3.09-2.83 6.11-4.3 9.12l1.54.97c-.95 1.35-1.45 3.22-3.22 3.65-.21-1.28.83-4.03-.84-4.62-1.29-.4-2.7-.53-4.22-.36 2.81-3.77 6.68-6.59 9.88-10.07z" fill="#f9b02d"/><path d="M146.99 142.76c1.56-.51 3.39-.07 5.03-.15-.2 3.93-1.1 7.7-1.8 11.54-1.58-.15-4.53.25-4.55-2.08.3-3.05.39-6.39 1.32-9.31z" fill="#b34612"/><path d="M159.31 143.25c2.13.35 4.26.63 6.42.84-1.39 4.41-2.57 9.43-2.14 14.06-2.46-.37-4.92-.68-7.39-.98.43-4.2-.19-8.4.49-12.66.87-.43 1.74-.85 2.62-1.26z" fill="#d77e20"/><path d="M211.43 142.89c1.35 1.4 3.83 2.95 3.7 5.09-.11 4.02-1.26 8.09-3.1 11.66-1.25-1.17-3.37-1.54-2.95-3.64.81-4.44 2.48-8.48 2.35-13.11z" fill="#003b82"/><path d="M263.7 142.47c.97 2.77 1.58 5.61 1.45 8.55-.03 2.35-.23 1.88-2.15 2.65.28-3.6-.71-7.84.7-11.2z" fill="#4aaadf"/><path d="M28.27 144.4l2.04-.34c-.81 2.53-2.01 5.27-1.59 7.96.46 3.58 2.3 6.22 4.24 9.14-1.25-.33-2.91-.25-3.67-1.46-3.05-4.6-4.17-10.42-1.02-15.3z" fill="#64d0ff"/><path d="M143.21 143.95c-.7 5.46-1.44 10.92-2.17 16.37l-1.45-1.22c.11-4.66.28-9.24.85-13.87.92-.42 1.84-.85 2.77-1.28z" fill="#b25f08"/><path d="M165.73 144.09c1.44.16 2.75.48 4.11.97-.91 4.55-1 9.2-2.04 13.74-1.4-.22-2.8-.44-4.21-.65-.43-4.63.75-9.65 2.14-14.06z" fill="#eb9c28"/><path d="M207.39 146.1c-.22.98-.45 1.97-.71 2.94l-1.37-.99c-2.26 4.5-3 9.32-3.51 14.27-1.51-.03-3.02-.14-4.52-.32-.07-3.3.76-7.91-1.22-10.64 3.31-3.45 6.56-4.89 11.33-5.26z" fill="#e2e7ea"/><path d="M171.26 147.74c2.75 2.75 3.98 6.26 7.23 8.16l.65 1.06c.01 1.06 0 2.12-.03 3.18l-1.07.91c-1.8.42-3.6.79-5.35 1.4-.95-1.1-1.9-2.21-2.85-3.31.18-3.84.77-7.62 1.42-11.4z" fill="#f4ab2c"/><path d="M205.31 148.05l1.37.99c-1.6 4.37-2.94 8.52-2.59 13.26l-2.29.02c.51-4.95 1.25-9.77 3.51-14.27z" fill="#f6f7f8"/><path d="M54.05 151.16c.17 2.28.24 4.56.07 6.84-.58 8.07-.39 16.09-.42 24.17-.45-3.37-.74-6.73-.72-10.13.02-3.59 0-7.17-.22-10.76-4.41 1.49-8.78 2.75-13.48 2.97-.19.98-.37 1.96-.55 2.94-.32-2.14-.75-4.25-1.02-6.39.85-2.53 1.72-4.99 2.01-7.66 5.33 1.46 9.23-1.06 14.33-1.98z" fill="#28a9e5"/><path d="M76.66 150.78c-.09 2.74-.34 5.55-.12 8.29 1.41 1.68 4.23 1.93 5.8 3.59 2.65 2.48 3.48 5.64 4.09 9.09 2.11.52 4.22.96 6.35 1.34l-.08 1.82c-2.84-.01-5.57-.59-8.36-1.08-.55-6.1-4.49-10.51-10.3-12.19.33-2.86.89-5.68 1.48-8.5.37-.79.75-1.58 1.14-2.36z" fill="#b30f0f"/><path d="M76.66 150.78l2.6.23c-.23 2.48-.61 4.93-.92 7.39l.45.24c5.78 2.02 8.18 6.51 9.53 12.16 1.51.17 3.02.33 4.54.49l-.08 1.8c-2.13-.38-4.24-.82-6.35-1.34-.61-3.45-1.44-6.61-4.09-9.09-1.57-1.66-4.39-1.91-5.8-3.59-.22-2.74.03-5.55.12-8.29z" fill="#4a0303"/><path d="M79.26 151.01c4.93.56 9.86 1.27 14.75 2.12-.05 1.91-.11 3.81-.19 5.71-4.74-1.05-10.09-1.95-14.94-1.99l-.09 1.79-.45-.24c.31-2.46.69-4.91.92-7.39z" fill="#750606"/><path d="M123.93 151.33c-.46 2.97-.71 5.92-.55 8.93-2.52.65-4.66 1.04-7.24.37 1.07-4.01 3.56-8.11 7.79-9.3z" fill="#e6ebed"/><path d="M196.06 151.36c1.98 2.73 1.15 7.34 1.22 10.64-2.48-.59-4.56-1.57-6.67-2.98 1.61-2.72 3.28-5.35 5.45-7.66z" fill="#fafcfc"/><path d="M22.23 153.03c3.36 7.17.32 12.58-.31 19.82-.88.61-1.81 1.15-2.79 1.63l-1.9-1.72c-1.06-6.59 1.98-11.2 4.76-16.78l-1.84-.19.29-.42c.59-.79 1.18-1.57 1.79-2.34z" fill="#1798e6"/><path d="M136.77 153.86c-.21 3.07-.32 6.1-.02 9.17-2.44.51-4.48.58-6.93.04 1.2-3.98 2.87-7.54 6.95-9.21z" fill="#e5eaec"/><path d="M246.08 155.2c.8.22 1.6.45 2.39.69 1.22 5.24-.72 9.7-.85 14.87-1.21-1.14-2.71-2.32-3.47-3.81.51-3.93 1.4-7.81 1.93-11.75z" fill="#003a81"/><path d="M20.15 155.79l1.84.19c-2.78 5.58-5.82 10.19-4.76 16.78l1.9 1.72c-.97.27-1.93.35-2.87.25-1.35-1.57-1.36-3.78-1.26-5.73.4-4.7 2.51-9.35 5.15-13.21z" fill="#50b1e3"/><path d="M109.71 156.02c-1.05 2.87-1.83 5.7-2.12 8.75-1.88-.27-5.29-.15-6.54-1.81 1.72-3.28 4.61-6.91 8.66-6.94z" fill="#e8ecef"/><path d="M78.88 156.85c4.85.04 10.2.94 14.94 1.99 1.23.65 2.45 1.33 3.66 2.01-3.7 1.89-4.33 6.74-4.62 10.44-1.52-.16-3.03-.32-4.54-.49-1.35-5.65-3.75-10.14-9.53-12.16l.09-1.79z" fill="#c91111"/><path d="M240.17 156.42c-1.73 5.47-4.2 9.92-3.34 15.93-2.02-.07-4.02-.22-5.99-.66l1.96-.83c-.33-3.87.63-7.78.26-11.56 2.13-1.63 4.39-2.73 7.11-2.88z" fill="#e0e5e8"/><path d="M240.17 156.42l2.09-.04c-1.86 5.29-3.84 10.25-3.68 15.98l-1.75-.01c-.86-6.01 1.61-10.46 3.34-15.93z" fill="#f7f8f9"/><path d="M264.3 156.6c.55 3.15.18 6.21-.28 9.34-.49 1.29-.69 3.66-2.05 4.24l-.42-2.3c.61-3.54 1.68-6.62.92-10.24.61-.35 1.21-.7 1.83-1.04z" fill="#56c1f5"/><path d="M186.38 158.44l.6.32c4.18 5.83 14.06 6.04 20.45 5.29-1.2 2.62-4.89 2.7-7.36 3.61 3.72.27 5.77-.18 9.07-1.8-.3 2.18-.32 4.68-1.9 6.4-1.42 1.17-3.4 1.73-5.07 2.48 3.33-.01 5.93.05 8-2.96 1.93.63 3.83 1.33 5.71 2.09-.13 2.47.24 4.24 1.31 6.44 1.08 1.05 2.32 1.86 3.59 2.65.03-3.49.19-6.25 2.18-9.22l.97.71c1.76 1.3 3.57 2.61 5.89 2.39.78-.85 1.46-1.77 2.17-2.69 3.45.41 6.84.08 10.28-.25-1.2 2.93-5.49 2.9-8.15 3.76 3.8.36 6.37-.32 9.81-1.75-.33 3.23-1.06 6.2-3.75 8.29-3.09 2.39-7.7 1.63-11.28 1.03-.69-.33-1.36-.68-2.03-1.05 3.48.23 10.06.85 12.38-2.37-5.56-.61-10.92.23-16.39-1.39.61 1.6 1.77 2.42 3.16 3.29-3.14.14-5.48 1.22-8.08 2.86-3.25 1.9-6.47 3.76-9.22 6.37-5.36 2.91-11.82 4.24-17.83 4.94.45-1.09.75-2.23.9-3.44l-.25.22-.2.18-.22.21c-3.22.55-6.92 4.57-6.17 7.94.74 3.15 3.51 2.59 6.01 3.29.51 2.71 1.08 5.36 2.35 7.84-3.01 1.04-5.17 2.95-7.43 5.1l-1.7-.19c-5.45-4.02-13.38-5.18-18.46.08l-.14.89c-.1.85-.22 1.7-.35 2.54-.69.8-1.39 1.6-2.09 2.4 1.95-.19 3.95-.47 5.91-.45 1.64.38 2.83 2.23 4.03 3.33l1.09-.4c1.84-2.31-1.03-5.78-2.04-7.94 2.17.61 4.12 1.16 4.84 3.55.23 1.93-.36 3.97-.56 5.9-1.38 1.09-2.6 2.7-4.45 2.87-5.45.48-11.31-2.48-16.97-1.79-1.56.13-2.57 1.41-2.03 2.94.39 1.34 2.23 2.07 3.32 2.77 4.72 2.4 9.08 5.5 13.14 8.88 1.85 1.62 2.43 2.96 2.6 5.41-8.48-.76-18.08-6.31-26.92-4.63-2.65.31-4.53 1.96-4.89 4.65-.61 6.39 2.74 11.43 4.8 17.16-9.92-4.49-18.97-12.14-25.17-21.08-3.79-5.57-7.04-12.71-5.34-19.56 1.56-5.96 7.05-9.17 12.02-12.06 10.85-6.12 23.66-7.62 35.77-4.93 3.66.65 6.52 2.32 10.26 2.04.83.33 1.66.67 2.49 1-1.27-1.13-2.54-2.26-3.82-3.39 1.07-2.13 1.5-3.9 1.69-6.27 1.36-.84 3.34-1.54 4.1-3.01 1.73-3.24 1.09-6.34.56-9.78-.33.21-.67.42-1 .63-1.84 1.47-1.76 4.76-3.62 6.25-1.45.74-3.57-.16-5.08-.53l1.8-.51c.07-1.76.24-3.69-.21-5.42-1.35-1.12-2.93-1.25-4.58-1.7-1.41-.32-2.72-.85-4.03-1.45 1.66-.74 3.86-1.13 5.24-2.35 1.86-3.03 2.01-6.8 4.06-9.84 1.33-1.77 1.38-3.4 1.47-5.55 2.79-2.36 5.96-2.92 9.3-4.09.42 1.63.85 3.2 1.77 4.63.92 1.4 1.81 2.6 3.46 3.19.12-1.93-.17-4.08.36-5.95.68-1.09 1.62-2.05 2.46-3.02 1.73 1.12 3.4 1.79 5.44 2.17-3.82-1.24-5-4.46-8.1-6.64.01-.51.04-1.02.07-1.53z" fill="#1797e5"/><path d="M144.98 158.94c5.65.7 11.35 1.41 16.95 2.39-.44 1.88-.76 3.78-.99 5.7-5-.4-9.91-1.34-14.89-1.88-.36 1.97-.63 3.92-.51 5.92-.74-3.5-1.89-7.1-3.87-10.11 1.08-1.33 1.29-2.36 3.31-2.02z" fill="#750606"/><path d="M233.06 159.3c.37 3.78-.59 7.69-.26 11.56l-1.96.83c-2.01-.59-3.72-1.6-5.52-2.62 2.08-3.69 4.39-7.11 7.74-9.77z" fill="#f6f8fa"/><path d="M37.71 160.8c.27 2.14.7 4.25 1.02 6.39.2 2.67.53 5.31.96 7.95 1.44 12.84 4.86 25.55 10.29 37.27.66 1.52 1.28 3.06 1.95 4.57l-1.56.27-.92.17c-3.75-1.36-8.09-1.81-10.21-5.63-1.84-3.82.08-7.54 1.37-11.16-3.95-2.77-7.54-5.6-8.48-10.63-.66-3.06.53-5.43 1.68-8.14-1.68-2.06-3.54-3.79-4.33-6.39-1.26-3.92-.79-7.59-.43-11.59 4.09.64 6-.01 8.66-3.08z" fill="#1797e5"/><path d="M52.76 161.28c.22 3.59.24 7.17.22 10.76-3.41 1.98-7.07 2.31-10.86 3.04-.65-.64-1.3-1.27-1.96-1.9l-.47 1.96a92.2 92.2 0 0 1-.96-7.95c.18-.98.36-1.96.55-2.94 4.7-.22 9.07-1.48 13.48-2.97z" fill="#33b3e5"/><path d="M161.93 161.33l1.44.34c.35 2.86-1.96 6.09-.79 8.65-.5.86-1.02 1.7-1.53 2.54-3.32-.08-5.97.36-8.26 2.94-.96 1.24-3.05 3.06-2.06 4.74-1.96.93-2.48.16-3.96-1.01 3.29-1.17 3.38-4.6 6.2-6.58 2.37-1.82 4.94-1.87 7.78-2.34.05-1.19.11-2.39.19-3.58.23-1.92.55-3.82.99-5.7z" fill="#4d0404"/><path d="M185.08 160.77c1.42 1.1 2.63 2.4 3.89 3.67-.84.97-1.78 1.93-2.46 3.02-.53 1.87-.24 4.02-.36 5.95-1.65-.59-2.54-1.79-3.46-3.19-.85-3.75-.42-6.72 2.39-9.45z" fill="#0a5da4"/><path d="M74.04 161.64c5.81 1.68 9.75 6.09 10.3 12.19-3.85-.58-7.7-.78-11.5-1.68.13-3.54.73-7 1.2-10.51z" fill="#3d0000"/><path d="M113.18 162.37c.62.25 1.25.52 1.86.8.62.3 1.23.61 1.84.92.4 6.28 1.06 12.26 4.14 17.88 1.23 2.06 2.66 4.75 5.16 5.34.32-2.71.36-5.3.1-8.02.62.64 1.23 1.28 1.85 1.91-.24-1.44-.52-2.86-.89-4.28-1.13-3.77-1.08-7.05-.36-10.89 1.32.31 2.65.63 3.97.94l-1.96-1.96c1.01.16 2.02.32 3.02.48.57.2 1.14.41 1.7.62 2.6 8.61 5.05 17.84 4.07 26.91-.36 3.73-1.96 6.85-3.69 10.09-6.82 1.02-13.25 3.58-18.53 8.06-5.09-3.12-10.57-6.83-13.1-12.48-1.42-3.3-.87-6.44-.09-9.8-1.71-3.64-3.63-6.75-4.02-10.87-.5-3.79.3-7.24.79-10.95-.43-.73-.86-1.44-1.31-2.15l1.24-.77c1.4.79 2.75 1.65 4.17 2.4-1.11 7.13 1.52 13.61 6.15 18.93 2.14 2.51 4.36 4.12 7.4 5.39-.26-5.09-2.61-9.91-3.63-14.9-1.27-4.48-1.28-9.16.12-13.6z" fill="#1796e4"/><path d="M124.58 162.04c-.43 5.52-.25 10.79 1.86 15.98l.8-1.1c.37 1.42.65 2.84.89 4.28-.62-.63-1.23-1.27-1.85-1.91.26 2.72.22 5.31-.1 8.02-2.5-.59-3.93-3.28-5.16-5.34-3.08-5.62-3.74-11.6-4.14-17.88-.61-.31-1.22-.62-1.84-.92 3.28.33 6.39-.32 9.54-1.13z" fill="#01539c"/><path d="M163.37 161.67l1.61.48c.15.96.28 1.92.38 2.9-.33 2.12-1.43 3.67-2.78 5.27-1.17-2.56 1.14-5.79.79-8.65z" fill="#850909"/><path d="M27.94 163.76l1.11.12c-.36 4-.83 7.67.43 11.59.79 2.6 2.65 4.33 4.33 6.39-1.15 2.71-2.34 5.08-1.68 8.14.94 5.03 4.53 7.86 8.48 10.63-1.29 3.62-3.21 7.34-1.37 11.16 2.12 3.82 6.46 4.27 10.21 5.63-1.45.46-2.95 1.37-4.49.99-3.62-1.13-7.62-3.66-8.72-7.51-1.05-3.33.07-6.27 1.52-9.25-2.9-2.52-5.74-4.47-7.22-8.19-1.66-3.87-.97-7.6.39-11.41-1.68-2.1-3.33-3.95-4.14-6.59-1.07-3.93-.54-8.03 1.15-11.7z" fill="#62cdfe"/><path d="M142 165.08c.33 2.64-.49 2.97-2.29 4.53l-.11.57c-.59 10.73.15 21.53-.4 32.27-1.74.17-3.48.4-5.21.66 1.73-3.24 3.33-6.36 3.69-10.09.98-9.07-1.47-18.3-4.07-26.91-.56-.21-1.13-.42-1.7-.62 3.68.09 6.5-1.61 10.09-.41z" fill="#025097"/><path d="M97.73 164.92c.45.71.88 1.42 1.31 2.15-.49 3.71-1.29 7.16-.79 10.95.39 4.12 2.31 7.23 4.02 10.87-.78 3.36-1.33 6.5.09 9.8 2.53 5.65 8.01 9.36 13.1 12.48l-1.57 1.22c-3.36-1.9-6.75-4.06-9.49-6.79-3.44-3.54-5.73-8.58-5.03-13.58.08-1.78.69-3.34-.28-4.98-2.32-4.4-3.86-8.99-3.39-14.05.27-2.51.2-6.12 2.03-8.07z" fill="#63ceff"/><path d="M146.05 165.15c4.98.54 9.89 1.48 14.89 1.88-.08 1.19-.14 2.39-.19 3.58-2.84.47-5.41.52-7.78 2.34-2.82 1.98-2.91 5.41-6.2 6.58-.5-2.81-.83-5.64-1.23-8.46-.12-2 .15-3.95.51-5.92z" fill="#c91111"/><path d="M180.92 165.59c-3.34 1.17-6.51 1.73-9.3 4.09-4.35 3.39-4.9 7.71-6.27 12.66-1.83 3.06-7.35 3.58-10.51 4.59.03 1.4-.54 3.56.54 4.65 3.08 1.68 6.56 2.67 9.81 3.98.89.33 1.78.64 2.68.94 1.51.37 3.63 1.27 5.08.53 1.86-1.49 1.78-4.78 3.62-6.25-.11 2.41-.5 6.58-2.77 8.01-1.85.32-3.99-.72-5.79-1.15-5.16-1.72-10.5-1.85-15.54-4-.3-3.35.04-6.06.96-9.27 3.04-1.02 6.22-1.66 9.21-2.79 1.03-2.41 1.22-5.01 2.65-7.3 3.1-5.61 9.26-8.89 15.63-8.69z" fill="#62ceff"/><path d="M264.02 165.94c-.55 5.12-1.51 10.56-4.12 15.09h-1.97c.98-4.45 2.59-8.71 3.62-13.15l.42 2.3c1.36-.58 1.56-2.95 2.05-4.24z" fill="#35a3e2"/><path d="M103.14 166.55c1.63.2 3.26.34 4.9.49-.5.51-1 1.03-1.51 1.55 1.26.02 2.51.05 3.76.06.16 1.04.31 2.07.44 3.11-1.11 4.39.84 9.89-1.44 13.72-4.63-5.32-7.26-11.8-6.15-18.93z" fill="#005099"/><path d="M220.86 167.92c3.54 2.7 6.63 5.27 11.13 6.23-.71.92-1.39 1.84-2.17 2.69-2.32.22-4.13-1.09-5.89-2.39-1.18-2.29-2.74-4.02-3.07-6.53z" fill="#00509a"/><path d="M142.96 168.92c1.2 3.86 1.6 7.71 1.61 11.73.38.31.76.61 1.13.91-1.23 1.69-1.02 3.47-1.06 5.44.05 5.08-.01 10.15.15 15.23-1.87.04-3.73.09-5.59.22.55-10.74-.19-21.54.4-32.27l3.36-1.26z" fill="#096db8"/><path d="M189.03 169.52c5.65 1.24 11.19.91 16.91.99-.87 2.02-4.04 2.31-5.93 2.74-3.57.56-9.17-.06-10.98-3.73z" fill="#61c8fa"/><path d="M212.08 168.99c1.61.33 3.09.88 4.63 1.42-.28 1.15-.57 2.3-.83 3.46a88.52 88.52 0 0 0-5.71-2.09c.61-.91 1-2.17 1.91-2.79z" fill="#005099"/><path d="M171.62 169.68c-.09 2.15-.14 3.78-1.47 5.55-2.05 3.04-2.2 6.81-4.06 9.84-1.38 1.22-3.58 1.61-5.24 2.35 1.31.6 2.62 1.13 4.03 1.45.02 2.24.12 4.46.31 6.69-3.25-1.31-6.73-2.3-9.81-3.98-1.08-1.09-.51-3.25-.54-4.65 3.16-1.01 8.68-1.53 10.51-4.59 1.37-4.95 1.92-9.27 6.27-12.66z" fill="#02559f"/><path d="M52.98 172.04c-.02 3.4.27 6.76.72 10.13.79 9.54 2.79 18.93 5.76 28.02-3.14.61-6.28 2.21-9.48 2.22-5.43-11.72-8.85-24.43-10.29-37.27l.47-1.96c.66.63 1.31 1.26 1.96 1.9 3.79-.73 7.45-1.06 10.86-3.04z" fill="#3ebfe5"/><path d="M110.73 171.76c.52 1.7 1.12 3.37 1.78 5.02l.55-.81c1.02 4.99 3.37 9.81 3.63 14.9-3.04-1.27-5.26-2.88-7.4-5.39 2.28-3.83.33-9.33 1.44-13.72z" fill="#096cb8"/><path d="M219.89 171.24c1.03.84 2.03 1.69 3.07 2.5-1.99 2.97-2.15 5.73-2.18 9.22-1.27-.79-2.51-1.6-3.59-2.65.46-3.36-.42-6.85 2.7-9.07z" fill="#004f98"/><path d="M161.05 172.86l-.78 1.31c-3.9 1.24-6.17 2.56-8.5 5.99l-1.04.38c-.99-1.68 1.1-3.5 2.06-4.74 2.29-2.58 4.94-3.02 8.26-2.94z" fill="#ba1010"/><path d="M160.27 174.17c-.51 1.5-1 3-1.51 4.5-2.33.52-4.65 1.03-6.99 1.49 2.33-3.43 4.6-4.75 8.5-5.99z" fill="#3e0406"/><path d="M246.67 177.16c1.52.18 1.76 2.66 2.36 3.82.95 2.53 2.11 6.83 5.08 7.62 5.01 1.18 9.59-3.48 14.25-5.05-1.98 5.67-6.94 10.64-11.31 14.62-1.33.82-2.64 1.66-3.93 2.55 2.53-.04 4.29-.62 6.49-1.81-1.53 3.31-1.09 7.56-.87 11.12.02 1.5 2.13 2.58 3.13 3.58l-1.82.79c.4.96 1.85 1.4 2.69 1.9 3.66 1.98 7.34 3.78 11.41 4.73-.52.54-1.03 1.09-1.52 1.64-1.56-.49-3.03-1.03-4.69-1.04-1.61.94-2.93 2.51-4.45 3.57-1.29.42-2.66.63-3.99.9l-.15 1.35c-1.11.29-2.22.59-3.33.88.67.89 1.34 1.77 2.03 2.64-2.21.08-4.42.07-6.63-.01.52-1.24 1-2.49 1.47-3.75-.38.25-.77.5-1.15.75l-1.28.24c-.14-1.01-.24-2.01-.65-2.96-2.73-6.09-5.05-12.36-7.55-18.55-2.15-5.72-5.03-11.26-6.95-17.03-.67-1.39.92-1.87 1.77-2.59 5.65-1.27 8.22-4.41 9.59-9.91z" fill="#1795e3"/><path d="M72.5 177.27c6.88.52 13.71 1.81 20.56 2.65.82 3.18 2.23 6.07 3.51 9.07.6 2.85-1.99 1.53-3.56 1.52-4.75-1.01-10.96-.65-15.07-3.39-3.54-2.33-4.65-5.89-5.44-9.85z" fill="#f2f2f2"/><path d="M222.86 180.42c5.47 1.62 10.83.78 16.39 1.39-2.32 3.22-8.9 2.6-12.38 2.37l-.85-.47c-1.39-.87-2.55-1.69-3.16-3.29z" fill="#5ac3f8"/><path d="M145.7 181.56c1.1 1.09 2.68 1.56 2.08 3.42-.38 2.45-1.3 4.51-.62 7.01.78 3.4.5 6.73.72 10.19-1.03.02-2.06.03-3.09.05-.16-5.08-.1-10.15-.15-15.23.04-1.97-.17-3.75 1.06-5.44z" fill="#1391e1"/><path d="M226.02 183.71l.85.47c.67.37 1.34.72 2.03 1.05 2.61 1.19 5.35 1.55 8.18 1.84-.85.72-2.44 1.2-1.77 2.59 1.92 5.77 4.8 11.31 6.95 17.03 2.5 6.19 4.82 12.46 7.55 18.55.41.95.51 1.95.65 2.96-3.59 3.52-6.63 7.56-10.38 10.95-4.09-9.17-7.17-19.23-11.8-28.13-1.12.75-1.39 1.77-2.89 1.18l.93-1.8c.99-.44 1.98-.88 2.97-1.33 1.33-.95-2.42-1.95-3.06-2.48l.21-1.35c-1.12-3.83-3.26-7.36-4.55-11.15-1.11-2.86-1.33-5.55-3.95-7.52 2.6-1.64 4.94-2.72 8.08-2.86z" fill="#138ddb"/><path d="M70.91 186.97c2.66 2.67 5.36 5.05 9.08 6.09 5.13 1.78 10.9 1.27 15.94 2.96 1.5 3.29 2.09 6.67 4.49 9.55 3.01 4.17 7.16 6.1 10.99 9.29-1.07 1.62-2.16 3.23-3.16 4.9-.56-1.56-1.9-2.01-3.15-2.92-2.1-1.3-3.62-3.07-5.22-4.91-2.16-3.34-3.55-6.99-5.35-10.51-1.25-.08-2.49-.16-3.74-.23-3.15-.64-6.3-1.09-9.5-1.4-6.33-1.86-9.77-6.29-10.38-12.82z" fill="#003b82"/><path d="M217.94 186.57c2.62 1.97 2.84 4.66 3.95 7.52 1.29 3.79 3.43 7.32 4.55 11.15l-.21 1.35c-4.65-1.87-9.48-3.23-14.4-4.19 1.01-.24 2-.49 3-.74-1.11-.61-2.7-.98-3.49-1.99-1.15-2.09-1.74-4.51-2.62-6.73 2.75-2.61 5.97-4.47 9.22-6.37z" fill="#1082ce"/><path d="M269.87 186.27c.34 11.29 4.54 21.6 10.58 31l-.44.98c-3.91-2.59-6.32-7.7-8.52-11.73-2.25-4.07-2.89-8.5-4.35-12.83-1.75 1.29-3.41 2.7-5.18 3.96-.78.44-1.56.86-2.35 1.26-2.2 1.19-3.96 1.77-6.49 1.81 1.29-.89 2.6-1.73 3.93-2.55 5.57-2.81 8.79-7.42 12.82-11.9z" fill="#5fc8fc"/><path d="M164.88 188.87c1.65.45 3.23.58 4.58 1.7.45 1.73.28 3.66.21 5.42l-1.8.51c-.9-.3-1.79-.61-2.68-.94-.19-2.23-.29-4.45-.31-6.69z" fill="#0a70bc"/><path d="M208.72 192.94c.88 2.22 1.47 4.64 2.62 6.73.79 1.01 2.38 1.38 3.49 1.99-1 .25-1.99.5-3 .74-7.35-1.38-14.7-1.15-22.14-1.36.38-1.06.78-2.12 1.2-3.16 6.01-.7 12.47-2.03 17.83-4.94z" fill="#0b74c0"/><path d="M191.34 194.84l.2-.18.25-.22c-.15 1.21-.45 2.35-.9 3.44-.42 1.04-.82 2.1-1.2 3.16 7.44.21 14.79-.02 22.14 1.36 4.92.96 9.75 2.32 14.4 4.19.64.53 4.39 1.53 3.06 2.48-13.79-3.53-27.8-5.55-41.98-6.58.08-3.22 2.21-4.86 3.81-7.44l.22-.21z" fill="#62cdff"/><path d="M267.14 193.69c1.46 4.33 2.1 8.76 4.35 12.83 2.2 4.03 4.61 9.14 8.52 11.73l.44-.98c.35.6.69 1.21 1.02 1.82-6.22 1.3-11.56-.57-17.24-2.8l.45-1.86c-.59-.51-1.19-1.02-1.79-1.53-.2-4.87 1.08-10.75-.93-15.25 1.77-1.26 3.43-2.67 5.18-3.96z" fill="#01549d"/><path d="M191.12 195.05c-1.6 2.58-3.73 4.22-3.81 7.44 14.18 1.03 28.19 3.05 41.98 6.58-.99.45-1.98.89-2.97 1.33l-.93 1.8c-2.11 4.53-5.76 7.28-10.46 8.77-4.42.62-8.72.36-13.07-.59-3.53-1.43-6.23-3.2-8.55-6.26-1.27-2.48-1.84-5.13-2.35-7.84-2.5-.7-5.27-.14-6.01-3.29-.75-3.37 2.95-7.39 6.17-7.94z" fill="#112842"/><path d="M153.31 198.7c2.55.22 5.08.59 7.62.91-1.98.84-1.96 2.86-2.76 4.65-1.36-.43-2.75-.83-4.05-1.42-.87-1.15-.83-2.76-.81-4.14z" fill="#e0dfde"/><path d="M261.96 197.65c2.01 4.5.73 10.38.93 15.25.6.51 1.2 1.02 1.79 1.53l-.45 1.86-1.49.01c-.84-.5-2.29-.94-2.69-1.9l1.82-.79c-1-1-3.11-2.08-3.13-3.58-.22-3.56-.66-7.81.87-11.12.79-.4 1.57-.82 2.35-1.26z" fill="#096cb8"/><path d="M81.29 199.79c3.2.31 6.35.76 9.5 1.4.97.38 1.93.76 2.88 1.16-.61.87-1.22 1.74-1.83 2.62 1.59 4.94.45 9.78 1.34 14.8.88 4.85.37 9.7 1 14.57.44 3.56.67 7.07.6 10.66-.2 4.22 2.04 7.36.02 11.46-4.11-2.02-6.76-5.85-10.86-7.75l-.85-.67c-2.67-8.81-1.15-17.22-2.69-26.15.16-6.39-1.13-12.57-1.15-18.92-.14-1.44 1.22-2.21 2.04-3.18z" fill="#1184d1"/><path d="M160.93 199.61c1.2.43 2.02 1.23 2.44 2.38-.6 2.42-3.15 2.54-5.2 2.27.8-1.79.78-3.81 2.76-4.65z" fill="#fff"/><path d="M28.45 201.46l1.14.02c.07.72.15 1.45.22 2.18-1.46 5.4-2.52 11.6-.59 17 1.7-1.29 3.31-2.45 5.45-2.93-1.1 2.23-3.47 3.78-5.69 4.74-1.75.07-2.04-2.04-2.46-3.31-1.49-6.14-.19-11.91 1.93-17.7z" fill="#52b3e4"/><path d="M90.79 201.19c1.25.07 2.49.15 3.74.23 1.8 3.52 3.19 7.17 5.35 10.51-.7 2.02-1.18 3.81-.59 5.95 1.67 6.54-.09 12.97 1.3 19.47 1.09 5.01-.19 9.97 1.01 15 .68 3.06.76 5.13-.73 7.96-2.08-1.19-4.05-2.56-6.07-3.85 2.02-4.1-.22-7.24-.02-11.46.07-3.59-.16-7.1-.6-10.66-.63-4.87-.12-9.72-1-14.57-.89-5.02.25-9.86-1.34-14.8.61-.88 1.22-1.75 1.83-2.62-.95-.4-1.91-.78-2.88-1.16z" fill="#0a70bc"/><path d="M29.81 203.66c1.72 4.67 2.81 9.5 4.86 14.07-2.14.48-3.75 1.64-5.45 2.93-1.93-5.4-.87-11.6.59-17z" fill="#1697e5"/><path d="M140.12 206.6c11.11-1.36 22.69-1.23 32.43 5-3.74.28-6.6-1.39-10.26-2.04-12.11-2.69-24.92-1.19-35.77 4.93-4.97 2.89-10.46 6.1-12.02 12.06-1.7 6.85 1.55 13.99 5.34 19.56 6.2 8.94 15.25 16.59 25.17 21.08 2.82 1.41 5.68 2.62 8.83 3.09 13.43 2.17 27.53 1.8 40.59-2.21 3.71-1 7.26-2.4 10.77-3.94 3.93-1.63 7.61-3.72 11.23-5.94 4.09-2.39 7.85-5.23 11.57-8.15 4.32-3.34 8.2-7.06 12.08-10.89 3.75-3.39 6.79-7.43 10.38-10.95l1.28-.24c-6.86 11.13-15.95 20.55-26.41 28.35-20.69 16.39-48.7 21.44-74.18 15.45-11.29-2.74-22.16-8.19-29.9-17.01-6.93-7.87-10.78-18.25-10.03-28.76.39-4.52 3.35-8.29 6.75-11.06 6.15-4.89 14.45-7.39 22.15-8.33z" fill="#5fc8fb"/><path d="M194.17 207.11c6.15.3 12.19 1.69 18.36 1.88-.17.91-.33 1.82-.49 2.73.89.19 1.79.4 2.67.63 1.69 1.46.03 3.82-.13 5.66-5.39.73-11.33.51-15.95-2.66-2.79-1.94-4.08-4.95-4.46-8.24z" fill="#dbdbdb"/><path d="M59.46 210.19a90.66 90.66 0 0 0 2.92 6.71c-.61 3.22-5.63 3.43-8.2 4.23-.61-1.11-1.21-2.22-1.81-3.33l-.44-.82c-.67-1.51-1.29-3.05-1.95-4.57 3.2-.01 6.34-1.61 9.48-2.22z" fill="#2eaee5"/><path d="M228.28 211.02c4.63 8.9 7.71 18.96 11.8 28.13-3.88 3.83-7.76 7.55-12.08 10.89-2.59-2.46-3.09-5.51-4.37-8.7-2.93-6.83-5.1-13.69-8.7-20.37 4.7-1.49 8.35-4.24 10.46-8.77 1.5.59 1.77-.43 2.89-1.18z" fill="#0f7fcc"/><path d="M99.88 211.93c1.6 1.84 3.12 3.61 5.22 4.91 1.25.91 2.59 1.36 3.15 2.92-2.95 5.35-3.18 11.34-2.23 17.26 1.2 7.04 4.34 13.27 8.45 19.04-.87.1-1.74.23-2.6.38.32 2.47.95 4.86 1.6 7.26-.56.77-1.12 1.55-1.68 2.32-3.91-1.5-7.31-3.63-10.92-5.71 1.49-2.83 1.41-4.9.73-7.96-1.2-5.03.08-9.99-1.01-15-1.39-6.5.37-12.93-1.3-19.47-.59-2.14-.11-3.93.59-5.95z" fill="#0663ad"/><path d="M146.02 211.61c3.17.09 6.16 3.54 4.37 6.6-.88-1.77-1.44-3.48-3.42-4.31-2.56-1.14-4.4.28-6.5 1.57-.63-2.76 3.45-4.12 5.55-3.86z" fill="#50b4e7"/><path d="M146.97 213.9c1.98.83 2.54 2.54 3.42 4.31l-.36.96c-1.54-.95-3.18-2.61-5.01-2.79-1.86.33-3.7 1.01-5.49 1.61.32-.83.64-1.67.94-2.52 2.1-1.29 3.94-2.71 6.5-1.57z" fill="#12243c"/><path d="M193.31 214.12c2.32 3.06 5.02 4.83 8.55 6.26-.71 1.23.5 2.57.87 3.77 4.5 11.36 8.89 22.8 13.7 34.04-3.62 2.22-7.3 4.31-11.23 5.94-2.98-4.72-4.13-9.98-6.35-15.03-4.28-9.28-7.25-19.03-11.56-28.31-1.05-.57-2.09-1.14-3.11-1.76l1.7.19c2.26-2.15 4.42-4.06 7.43-5.1z" fill="#0666b0"/><path d="M184.18 219.03c1.02.62 2.06 1.19 3.11 1.76 4.31 9.28 7.28 19.03 11.56 28.31 2.22 5.05 3.37 10.31 6.35 15.03-3.51 1.54-7.06 2.94-10.77 3.94-.99-.55-1.99-1.1-2.99-1.65-2.01-4.7-4.41-9.14-5.9-14.05-3.12-7.8-6.61-15.39-9.13-23.44.2-1.93.79-3.97.56-5.9-.72-2.39-2.67-2.94-4.84-3.55-2.31-.35-4.31-.06-6.55.52l.14-.89c5.08-5.26 13.01-4.1 18.46-.08z" fill="#0359a3"/><path d="M50.37 217.25l1.56-.27.44.82c-1.58 1.46-3.73 3.12-4.46 5.2-.79 2.29.25 4.59 1.87 6.21 2.58 2.66 6.52 4.26 9.76 6.04.54 2.54.68 6.55 3.04 8.16 1.77 1.23 4.22-.92 5.88-1.56l1.84.38c-1.28 3.82-5.59 4.93-9.03 3.48-2.91-1.64-2.83-5.37-3.45-8.24-7.98-1.6-12.07-8.57-12.82-16.2 2.36-1.01 3.82-1.94 5.37-4.02z" fill="#5fc7fb"/><path d="M62.38 216.9c4.39 10.86 11 20.32 18.51 29.23.69.68 1.42 1.32 2.2 1.91l.85.67c4.2 6.35 11.59 10.68 17.08 15.9-1.21.03-2.43.06-3.64.16l-1.11.35c.99-2.07-.72-2.23-2.06-3.3-5.25-2.96-10.24-6.31-14.89-10.15-2.57-2.22-4.86-4.71-7.59-6.75.24-2.58.09-5.13-.24-7.7-.41 1.67-.78 3.35-1.19 5.01l-1.84-.38c-4.76-6.97-10.37-13.15-14.28-20.72 2.57-.8 7.59-1.01 8.2-4.23z" fill="#20a1e6"/><path d="M52.37 217.8c.6 1.11 1.2 2.22 1.81 3.33 3.91 7.57 9.52 13.75 14.28 20.72-1.66.64-4.11 2.79-5.88 1.56-2.36-1.61-2.5-5.62-3.04-8.16-3.24-1.78-7.18-3.38-9.76-6.04-1.62-1.62-2.66-3.92-1.87-6.21.73-2.08 2.88-3.74 4.46-5.2z" fill="#1797e5"/><path d="M165.58 220c2.24-.58 4.24-.87 6.55-.52 1.01 2.16 3.88 5.63 2.04 7.94-.89-1.89-1.26-4.3-3.24-5.36-2-1.27-3.7-.12-5.7.48.13-.84.25-1.69.35-2.54z" fill="#4caee0"/><path d="M201.86 220.38c4.35.95 8.65 1.21 13.07.59 3.6 6.68 5.77 13.54 8.7 20.37 1.28 3.19 1.78 6.24 4.37 8.7-3.72 2.92-7.48 5.76-11.57 8.15-4.81-11.24-9.2-22.68-13.7-34.04-.37-1.2-1.58-2.54-.87-3.77z" fill="#0a71bd"/><path d="M274.15 221.03c1.17.26 2.34.53 3.51.8-4.35 4.68-7.71 9.59-10.42 15.37-1.43 2.67-2.16 5.82-4 8.2-1.97-3.56-3.49-7.49-5.81-10.84-1.94-2.24-5.17-.83-7.6-.46.53-1.04 1.08-2.08 1.59-3.14 2.21.08 4.42.09 6.63.01 1.73 2.07 3.16 4.35 4.84 6.46 2.67-5.34 5.66-10.36 9.74-14.76.49-.55 1-1.1 1.52-1.64z" fill="#5ec6fa"/><path d="M165.23 222.54c2-.6 3.7-1.75 5.7-.48 1.98 1.06 2.35 3.47 3.24 5.36l-1.09.4c-1.2-1.1-2.39-2.95-4.03-3.33-1.96-.02-3.96.26-5.91.45.7-.8 1.4-1.6 2.09-2.4z" fill="#12233a"/><path d="M267.94 221.63c1.66.01 3.13.55 4.69 1.04-4.08 4.4-7.07 9.42-9.74 14.76-1.68-2.11-3.11-4.39-4.84-6.46-.69-.87-1.36-1.75-2.03-2.64 1.11-.29 2.22-.59 3.33-.88l.15-1.35c1.33-.27 2.7-.48 3.99-.9 1.52-1.06 2.84-2.63 4.45-3.57z" fill="#01549d"/><path d="M176.41 228.93c2.52 8.05 6.01 15.64 9.13 23.44 1.49 4.91 3.89 9.35 5.9 14.05 1 .55 2 1.1 2.99 1.65-13.06 4.01-27.16 4.38-40.59 2.21-3.15-.47-6.01-1.68-8.83-3.09-2.06-5.73-5.41-10.77-4.8-17.16.36-2.69 2.24-4.34 4.89-4.65 8.84-1.68 18.44 3.87 26.92 4.63-.17-2.45-.75-3.79-2.6-5.41-4.06-3.38-8.42-6.48-13.14-8.88-1.09-.7-2.93-1.43-3.32-2.77-.54-1.53.47-2.81 2.03-2.94 5.66-.69 11.52 2.27 16.97 1.79 1.85-.17 3.07-1.78 4.45-2.87z" fill="#005099"/><path d="M142.01 233.85c7.42 1.36 15.29 5.57 20.7 10.82l-.44.21c-7.86-3.95-17.32-8.61-26.27-8.53-4.27-.1-7.95 1.31-11.26 3.96l-.6-.4c4.04-5.85 11.21-7.25 17.87-6.06z" fill="#11253d"/><path d="M136 236.35c8.95-.08 18.41 4.58 26.27 8.53l-1.31.65c-9.35-3.56-18.59-8.1-28.97-6.88-2.43.12-4.89 2.18-7.25 1.66 3.31-2.65 6.99-4.06 11.26-3.96z" fill="#63ceff"/><path d="M48.85 239.79c.78.64 1.52 1.32 2.2 2.05.47 3.46 1.04 5.12 3.7 7.46-.79.78-.96 1.56-2.24 1.2-2.5-2.96-3.89-6.81-3.66-10.71z" fill="#49a9da"/><path d="M51.05 241.84c1.63 1.8 3.22 3.63 4.87 5.42l-1.17 2.04c-2.66-2.34-3.23-4-3.7-7.46z" fill="#1790da"/><path d="M71.73 244.92c2.73 2.04 5.02 4.53 7.59 6.75 4.65 3.84 9.64 7.19 14.89 10.15 1.34 1.07 3.05 1.23 2.06 3.3-3.36 1.22-6.61 2.21-10.07.64-2.66-1.27-3.33-3.79-5.3-5.63-2.88-.82-5.82-.72-8.05-2.97-2.47-2.35-2.92-5.64-3.86-8.77 1.05-1.05 1.91-2.24 2.74-3.47z" fill="#1797e5"/><path d="M68.99 248.39c.94 3.13 1.39 6.42 3.86 8.77 2.23 2.25 5.17 2.15 8.05 2.97 1.97 1.84 2.64 4.36 5.3 5.63 3.46 1.57 6.71.58 10.07-.64l1.11-.35c2.27 4.48 6.61 8.25 11.6 9.23 2.86.6 5.29-.22 8.02-.89-.06.92-.16 1.84-.3 2.75-1.26 1.13-4.07.54-5.71.61-6.35-.39-11.12-2.7-14.9-7.86-4.17.9-8.13 1.56-12.04-.66-2.26-1.28-3.1-3.32-4.22-5.51-3.09-.48-5.9-.8-8.38-2.91-2.96-2.5-3.79-5.94-4.18-9.65l1.72-1.49z" fill="#60c8fc"/><path d="M83.94 248.71c4.1 1.9 6.75 5.73 10.86 7.75 2.02 1.29 3.99 2.66 6.07 3.85 3.61 2.08 7.01 4.21 10.92 5.71 1.09.33 2.2.63 3.31.91 1.31 2.14 1.76 3.64 1.9 6.18-2.73.67-5.16 1.49-8.02.89-4.99-.98-9.33-4.75-11.6-9.23 1.21-.1 2.43-.13 3.64-.16-5.49-5.22-12.88-9.55-17.08-15.9z" fill="#1797e5"/><path d="M234.91 254.32c1.35.28 2.68.65 3.98 1.1-.8 1.1-1.16 2.29-1.08 3.57-.06 5.11.37 10.15-.32 15.24-1.65-2.27-3.54-4.33-5.85-5.96-.58-3.43-.38-6.55-1.84-9.75 1.68-1.37 3.2-3.16 5.11-4.2z" fill="#1185d2"/><path d="M111.87 256.44c.86-.15 1.73-.28 2.6-.38 3.24 3.62 6.41 7.22 10.31 10.17 3.54 2.92 7.74 4.75 11.27 7.68-4.5-.99-8.97-2.04-13.31-3.6-1.44-.37-2.67-1.18-4.13-.56-1.22-1.94-2.14-3.8-4.37-4.75.28.65.56 1.29.86 1.93-1.11-.28-2.22-.58-3.31-.91.56-.77 1.12-1.55 1.68-2.32-.65-2.4-1.28-4.79-1.6-7.26z" fill="#005099"/><path d="M238.89 255.42c6.18 2.39 9.88 8 10 14.58.54 8.93-3.96 20.17-12.93 23.45.8-2.8 1.92-5.58 2.18-8.45.37-3.68-.21-7.13-.65-10.77.69-5.09.26-10.13.32-15.24-.08-1.28.28-2.47 1.08-3.57z" fill="#1797e5"/><path d="M229.8 258.52c1.46 3.2 1.26 6.32 1.84 9.75-4.38-1.58-9.03-2.32-13.67-1.69 4.37-2.19 7.91-5.16 11.83-8.06z" fill="#086ab5"/><path d="M217.97 266.58c4.64-.63 9.29.11 13.67 1.69 2.31 1.63 4.2 3.69 5.85 5.96.44 3.64 1.02 7.09.65 10.77-.26 2.87-1.38 5.65-2.18 8.45-1.63.59-3.02.92-4.79.93 3.98-4.34 6.63-9.32 5.61-15.4-.58-3.83-3.24-6.65-6.79-8.02-6-2.36-13.22-2.04-19.37-.41 2.49-1.26 4.89-2.67 7.35-3.97z" fill="#5fcafe"/><path d="M122.74 270.31c4.34 1.56 8.81 2.61 13.31 3.6 2.13 1.29 4 2.66 5.42 4.75-3.05 1.34-6.11 2.16-9.47 1.82-4.6-.29-8.01-2.48-11.88-4.67-.25-2.16-.7-4.03-1.51-6.06 1.46-.62 2.69.19 4.13.56z" fill="#1797e5"/><path d="M120.12 275.81c3.87 2.19 7.28 4.38 11.88 4.67 3.36.34 6.42-.48 9.47-1.82.55 1.45 1.54 2.5-.58 3.08-7.2 2.24-14.69.62-20.5-4.1l-.27-1.83z" fill="#64cfff"/><path d="M142.98 276.01c4.67 1.34 9.32 2.58 14.15 3.25-3.95.59-7.92-.23-11.81.45a59.1 59.1 0 0 1-2.34-3.7z" fill="#218ccd"/><path d="M157.13 279.26c1.61.07 3.22.16 4.83.29-.99 1.87-4.57 1.73-6.43 2.27-2.95.28-8.66 1.23-10.21-2.11 3.89-.68 7.86.14 11.81-.45z" fill="#53b0de"/></svg>