<svg viewBox="0 0 300 300" xmlns="http://www.w3.org/2000/svg"><path d="M151.8.75c6.74 4.92 13.97 9.03 21.08 13.39 35.29 21.26 70.85 42.13 106.81 62.24.21 13.95-.04 27.91-.04 41.87-.54-7.39-.44-14.88-1.45-22.21-.54-4.17-2.2-7.93-4.37-11.49-2.47 2.46-4.48 5.27-5.64 8.58a38.16 38.16 0 0 0-1.78-4.47c-4.09-7.38-10.6-12.51-18.13-16.09-4.97-3.01-9.98-5.96-14.92-9.03-7.55-4.51-15.38-8.51-22.84-13.17-9.7-6.17-20.15-10.93-29.83-17.12-6.14-4-12.73-6.8-19.39-9.76-1.12-.54-2.23-1.11-3.33-1.68-1.11-.76-2.17-1.57-3.25-2.37 3.7.18 7.28.67 10.63 2.35 4.53 2.25 8.71 5.09 13.32 7.22 4.69 2.31 8.92 5.19 13.4 7.88 13.37 8.03 26.85 15.87 40.34 23.7 8.26 4.68 16.47 9.32 24.35 14.63 3.33 2.32 6.65 4.63 10.13 6.72.34-.73.68-1.45 1.02-2.18-4.48-4.67-9.95-7.01-15.47-10.14-23.96-13.53-47.64-27.51-71.35-41.47-8.11-5.63-17.39-8.89-25.23-15.01-2-2.18-3.84-4.49-5.93-6.58-.99-.97-2.02-1.91-3.05-2.84 1.63-1.02 3.23-2.04 4.92-2.97z" fill="#2b2b28"/><path d="M146.88 3.72c1.03.93 2.06 1.87 3.05 2.84-3.53.57-6.78 1.55-9.8 3.5-13.62 8.57-27.67 16.37-41.57 24.47-20.3 11.65-40.87 23.28-61.45 34.42-3.26 1.87-7.98 3.2-10.26 6.27-1.04 2.58 1.05 6.37 1.89 8.89 1.44 5.07 1.74 10.09 1.21 15.32-.89 8.91.27 17.66-.11 26.56-.32 7.76-.01 15.5-.07 23.26-.43 11.91-.19 23.85-.46 35.77.26 8.67-1.19 17.26-.72 25.88.07 2.12 1.52 3.12 2.71 4.7 2.08-5.3 1.02-10.08 1.09-15.6.07-12.67.22-25.33.12-38 .06-16.43.31-32.9-.23-49.33.3-5.65.57-11.26 1.2-16.89.22 4.33.53 8.67 1.02 12.98-1.42 6.74-1.56 12.89-.65 19.72 1.11 7.88.54 15.61.63 23.52.04 6.33-.03 12.67-.06 19-.07 7.61.39 15.06-.63 22.65-.96 6.79.14 13.2.75 19.94.71-.35 1.41-.7 2.11-1.05.22 2.34.44 4.68.63 7.02-.84-.17-1.68-.34-2.51-.53-2.19-.84-6.11-1.37-6.8-4.02-1.52-4.06-1.25-8.76-.99-13.02 1.14-16.25.6-32.64.95-48.99 1.03-18.97-.1-38 .53-57 .19-7.61-.41-15.54-6.24-21.12-.18 1.31-.34 2.61-.47 3.92l-.18 2.28c-.18-2.15-.37-4.29-.44-6.45 5.22-2.06 10.01-4.88 14.89-7.6 16.61-8.95 33.02-18.24 49.45-27.5 20.55-11.77 41.21-23.45 61.41-35.81z" fill="#686a67"/><path d="M149.93 6.56c2.09 2.09 3.93 4.4 5.93 6.58-.15.9-.28 1.8-.42 2.7-7.86 1.47-14.08 5.64-20.66 9.87-2.98 1.27-5.91 2.62-8.68 4.29-15.02 8.98-30.5 17.18-45.46 26.25-13.46 7.14-26.95 14.4-39.76 22.67-3.78 2.4-6.2 5.18-7.47 9.55-1.59-1.43-3.16-2.86-4.67-4.36-.84-2.52-2.93-6.31-1.89-8.89 2.28-3.07 7-4.4 10.26-6.27 20.58-11.14 41.15-22.77 61.45-34.42 13.9-8.1 27.95-15.9 41.57-24.47 3.02-1.95 6.27-2.93 9.8-3.5z" fill="#fdfef8"/><path d="M155.86 13.14c7.84 6.12 17.12 9.38 25.23 15.01-.81.28-1.62.56-2.42.86-4.61-2.13-8.79-4.97-13.32-7.22-3.35-1.68-6.93-2.17-10.63-2.35 1.08.8 2.14 1.61 3.25 2.37-4.5-.54-9.28-.83-13.65.58-3.2 1.05-6.34 2.28-9.54 3.32 6.58-4.23 12.8-8.4 20.66-9.87.14-.9.27-1.8.42-2.7z" fill="#6f6f6c"/><path d="M157.97 21.81c1.1.57 2.21 1.14 3.33 1.68-5.61.08-11.62-.95-16.59 2.1-4.12 2.18-8.27 4.32-12.36 6.56-8.88 3.94-16.93 9.29-25.58 13.65-4.6 2.38-8.72 5.53-13.31 7.94-4.79-1.03-8.44.98-12.82 2.51C95.6 47.18 111.08 38.98 126.1 30c2.77-1.67 5.7-3.02 8.68-4.29 3.2-1.04 6.34-2.27 9.54-3.32 4.37-1.41 9.15-1.12 13.65-.58z" fill="#72683f"/><path d="M161.3 23.49c6.66 2.96 13.25 5.76 19.39 9.76 9.68 6.19 20.13 10.95 29.83 17.12 7.46 4.66 15.29 8.66 22.84 13.17 4.94 3.07 9.95 6.02 14.92 9.03 3.93 4.34 8.48 6.92 10.92 12.46-5.12-3.8-10.01-7.63-15.77-10.44-4.18-2.04-8.04-4.53-11.85-7.19-4.49-3.15-9.7-4.63-14.11-7.88-6.55-4.81-13.73-8.77-21.14-12.07-4.19-3.56-8.55-6.83-13.48-9.31-5.58-2.82-11.31-5.34-16.84-8.28-6.71-3.5-13.85-4.09-21.3-4.27 4.97-3.05 10.98-2.02 16.59-2.1z" fill="#8f7425"/><path d="M144.71 25.59c7.45.18 14.59.77 21.3 4.27 5.53 2.94 11.26 5.46 16.84 8.28 4.93 2.48 9.29 5.75 13.48 9.31 1.13 1.66 2.21 3.34 3.42 4.93-3.18-1.51-6.46-3.03-9.84-4.04-4.44-3.38-9.38-6.13-14.06-9.17-6.83-4.31-14.52-8.86-22.44-10.71-5.04-1.22-9.62.78-14.1 2.86-4.63 2.23-8.81 5.01-13.06 7.88-13.11 8.79-27.2 15.94-40.36 24.59-2.23.8-4.51 1.38-6.76 2.08 4.05-3.9 7.85-6.48 13.03-8.71 7.1-2.99 12.95-7.76 19.66-11.42 4.44-2.48 8.68-5.27 13.1-7.77 2.8-1.55 5.12-3.64 7.43-5.82 4.09-2.24 8.24-4.38 12.36-6.56z" fill="#b9912c"/><path d="M153.41 28.46c7.92 1.85 15.61 6.4 22.44 10.71 4.68 3.04 9.62 5.79 14.06 9.17l.23.19c-1.47.29-2.95.59-4.42.89-4.07-3.05-8.65-5.32-12.88-8.17-5.42-3.47-11.39-7.54-17.64-9.23-4.46-1.17-9.18-1.03-13.39.96-6.52 3.13-12.69 7.1-18.54 11.34-5.52 4.04-11.78 6.71-17.38 10.63-4.36 3.03-8.8 5.88-13.67 8.05-2.41 1.07-4.81 2.02-7.18 3.2.29-.8.57-1.6.85-2.41 13.16-8.65 27.25-15.8 40.36-24.59 4.25-2.87 8.43-5.65 13.06-7.88 4.48-2.08 9.06-4.08 14.1-2.86z" fill="#cfab4d"/><path d="M181.09 28.15c23.71 13.96 47.39 27.94 71.35 41.47 5.52 3.13 10.99 5.47 15.47 10.14-.34.73-.68 1.45-1.02 2.18-3.48-2.09-6.8-4.4-10.13-6.72-7.88-5.31-16.09-9.95-24.35-14.63-13.49-7.83-26.97-15.67-40.34-23.7-4.48-2.69-8.71-5.57-13.4-7.88.8-.3 1.61-.58 2.42-.86z" fill="#c7c6af"/><path d="M155.2 32.02c6.25 1.69 12.22 5.76 17.64 9.23 4.23 2.85 8.81 5.12 12.88 8.17 1.45 1.15 2.86 2.35 4.33 3.49-1.38.11-2.76.23-4.14.37 3.37 2.51 6.57 5 9.09 8.41 1.53 2.1 3.69 2.22 5.94 3.31l.89 1.21-.61-.6c-2.32-.44-4.66-.66-7.02-.84-5.78-1.87-8.79-6.05-13.38-9.63-8.61-6.59-15.65-13.61-25.72-18.31-3.46-1.5-6.95-1.64-10.46-.21-5.91 2.36-11.42 6.63-16.39 10.55-5.08 4.06-10.71 7.14-15.43 11.69-3.33 3.19-6.52 4.92-11.02 6.04-2.68.15-5.36.33-8.03.62.4 7.5.44 14.97.36 22.48.05 4.11-.37 7.85.85 11.82-.48 1.09-.97 2.17-1.48 3.24-1.11-2.1-2.39-3.87-2.43-6.33-.12-8.66 1.19-17.34 1.21-26.01.03-1.61.05-3.22.02-4.82-.01-.97-.04-1.94-.08-2.9 4.87-2.17 9.31-5.02 13.67-8.05 5.6-3.92 11.86-6.59 17.38-10.63 5.85-4.24 12.02-8.21 18.54-11.34 4.21-1.99 8.93-2.13 13.39-.96z" fill="#ebce78"/><path d="M132.35 32.15c-2.31 2.18-4.63 4.27-7.43 5.82-4.42 2.5-8.66 5.29-13.1 7.77-6.71 3.66-12.56 8.43-19.66 11.42-5.18 2.23-8.98 4.81-13.03 8.71l-.99.57c-2.91.79-5.69 1.72-8.2 3.44-7.57 5.06-16.46 8.78-23.56 14.46-2.22 1.77-3.75 3.9-4.48 6.67-2.56 9.67-2.3 20.11-2.21 29.99.3 18.13.08 36.26.32 54.39-.23 5.43-.47 10.86-.7 16.28-.45 4.07-1.18 8.06-1.88 12.09-1.16-2.17-2.14-4.17-1.97-6.72.18-21.67.11-43.36-.02-65.04-.05-7.07.26-14.36-.4-21.36 2.74-5.68 2.29-11.4 3.18-17.43 1.96-7.77 7.99-11.7 14.42-15.57 7.08-4.89 14.95-8.23 22.24-12.75 6.1-3.9 12.28-7.59 18.58-11.15 4.59-2.41 8.71-5.56 13.31-7.94 8.65-4.36 16.7-9.71 25.58-13.65z" fill="#98812f"/><path d="M155.1 36.83c10.07 4.7 17.11 11.72 25.72 18.31 4.59 3.58 7.6 7.76 13.38 9.63-7.48.35-14.3-.07-21.69-1.27-.52-3.2-.83-6.57-2.6-9.37-2.75-4.35-6.88-7.99-10.94-11.09-2.95-2.14-6.01-4.18-9.83-3.95-6.19.36-11.25 4.31-15.18 8.82-2.46 2.91-5.16 5.57-7.68 8.4-1.67 1.84-1.86 5.05-2.86 7.04-6.93 1.57-14.53 1.47-21.62 1.55 4.5-1.12 7.69-2.85 11.02-6.04 4.72-4.55 10.35-7.63 15.43-11.69 4.97-3.92 10.48-8.19 16.39-10.55 3.51-1.43 7-1.29 10.46.21z" fill="#fae59c"/><path d="M149.14 39.09c3.82-.23 6.88 1.81 9.83 3.95 4.06 3.1 8.19 6.74 10.94 11.09 1.77 2.8 2.08 6.17 2.6 9.37 7.39 1.2 14.21 1.62 21.69 1.27 2.36.18 4.7.4 7.02.84-13.29-.13-26.59 0-39.88-.02-.02-4.45.02-8.89-.07-13.34-6.48-.02-12.97-.13-19.45.04-.29 4.42-.13 8.88-.17 13.31-15.96-.05-31.92-.02-47.88-.08 2.67-.29 5.35-.47 8.03-.62 7.09-.08 14.69.02 21.62-1.55 1-1.99 1.19-5.2 2.86-7.04 2.52-2.83 5.22-5.49 7.68-8.4 3.93-4.51 8.99-8.46 15.18-8.82z" fill="#fdedb4"/><path d="M189.91 48.34c3.38 1.01 6.66 2.53 9.84 4.04 7.06 4.31 14.2 8.43 21.39 12.49 6.54 4.21 13.26 8.07 19.9 12.1 6.96 4.35 15.94 9.4 18.26 17.9 1.01 5.75-1.16 12.09-1.53 17.92l-.85.04-1.89.25c.18-4.82.1-9.76-.28-14.58-.31-6.08-5.79-11.44-10.32-14.96-10.52-7.55-21.78-14.25-32.6-21.37-7.25-4.75-14.91-8.18-21.69-13.64l-.23-.19z" fill="#d2a41e"/><path d="M196.33 47.45c7.41 3.3 14.59 7.26 21.14 12.07 4.41 3.25 9.62 4.73 14.11 7.88 3.81 2.66 7.67 5.15 11.85 7.19 5.76 2.81 10.65 6.64 15.77 10.44 1.35 2.46 2.66 4.95 3.83 7.51.94 7.98-.24 15.1-2.67 22.68-.85-.84-1.71-1.65-2.59-2.43.37-5.83 2.54-12.17 1.53-17.92-2.32-8.5-11.3-13.55-18.26-17.9-6.64-4.03-13.36-7.89-19.9-12.1-7.19-4.06-14.33-8.18-21.39-12.49-1.21-1.59-2.29-3.27-3.42-4.93z" fill="#b88c17"/><path d="M185.72 49.42c1.47-.3 2.95-.6 4.42-.89 6.78 5.46 14.44 8.89 21.69 13.64 10.82 7.12 22.08 13.82 32.6 21.37 4.53 3.52 10.01 8.88 10.32 14.96.38 4.82.46 9.76.28 14.58-.56 5.42-1.07 10.81-1.31 16.25-.51-.54-1.02-1.08-1.55-1.61-.3-9.23-.22-18.9-2.05-27.98-1.23-6.18-5.04-11.14-10.16-14.66-8.32-5.69-16.72-11.27-25.08-16.91-3.35-2.34-6.97-4.1-10.62-5.9-4.41-3.64-9.27-6.52-14.21-9.36-1.47-1.14-2.88-2.34-4.33-3.49z" fill="#e5b934"/><path d="M141.82 52.29c6.48-.17 12.97-.06 19.45-.04.09 4.45.05 8.89.07 13.34 13.29.02 26.59-.11 39.88.02.21 10.56.09 21.13.06 31.7-21.22.35-42.47-.05-63.7.24.4.41.81.82 1.22 1.22 10.69 9.34 21.82 18.24 32.71 27.37 2.8 2.31 5.58 4.65 8.41 6.93 1.61 1.45 3.3 2.56 3.62 4.88-1.9 2.9-4.75 5.22-7.12 7.73-1.74 1.7-3.46 3.41-5.17 5.13-1.31 1.27-2.58 2.58-3.88 3.86-2.01 1.95-3.96 3.95-5.94 5.93-.68.69-1.37 1.37-2.05 2.05-1.59 1.59-3.18 3.18-4.78 4.77-6.92 7-14.09 13.8-20.74 21.06 23.02.39 46.06.05 69.08.13l.62.11c-.16 10.19-.02 20.39-.08 30.58-14.02.38-28.09.09-42.12.14l-.06.73c-.11 4.06-.02 8.1-.5 12.14-6.15.21-12.35.2-18.51.01.03-4.12.04-8.25 0-12.37l-.94-.11c-2.11-.29-4.23-.38-6.36-.38-13.6.01-27.2.06-40.8-.04-.61-11.05-.4-22.25-.22-33.32 12.25-12.29 24.57-24.51 36.84-36.78 3.65-3.59 7.32-7.15 10.94-10.76-3.22-3.28-6.81-6.03-10.32-8.99-7.22-5.9-14.32-11.95-21.56-17.83-4.93-3.96-9.56-8.51-14.89-11.92-1.22-3.97-.8-7.71-.85-11.82.08-7.51.04-14.98-.36-22.48 15.96.06 31.92.03 47.88.08.04-4.43-.12-8.89.17-13.31z" fill="#000001"/><path d="M93.46 53.74c-6.3 3.56-12.48 7.25-18.58 11.15-7.29 4.52-15.16 7.86-22.24 12.75-6.43 3.87-12.46 7.8-14.42 15.57-.89 6.03-.44 11.75-3.18 17.43l-.54-1.88c-.49-4.31-.8-8.65-1.02-12.98 0-2.44-.07-4.87-.07-7.31 1.27-4.37 3.69-7.15 7.47-9.55 12.81-8.27 26.3-15.53 39.76-22.67 4.38-1.53 8.03-3.54 12.82-2.51z" fill="#6a6127"/><path d="M185.91 53.28c1.38-.14 2.76-.26 4.14-.37 4.94 2.84 9.8 5.72 14.21 9.36 2.96 2.94 6.01 5.68 9.44 8.07 6.39 4.52 12.33 9.59 18.04 14.95 2.55 2.44 3.96 5.31 5.89 8.2 2.04 3.11 4.42 5.63 5.98 9.07 1.64 3.63 2.72 7.55 3.39 11.47 1.53 10.45 3.82 20.66 4.35 31.25-.34 4.21-.49 8.41-.43 12.64a226.1 226.1 0 0 0-2.18-2.2c.42-9.75-2.04-19.96-3.99-29.47-.89-4.24-1.42-8.63-3.64-12.42-2.7-4.59-6.19-8.41-8.43-13.4-1.28-2.74-2.02-5.92-3.62-8.48-1.7-2.5-4.22-4.5-6.23-6.77-2.6-2.8-4.6-6.06-7.18-8.86-2.2-2.37-4.79-3.79-7.39-5.64-.42-.51-.83-1.02-1.24-1.52-3.02-.22-3.46-.26-5.19-2.95l-.89-1.21c-2.25-1.09-4.41-1.21-5.94-3.31-2.52-3.41-5.72-5.9-9.09-8.41z" fill="#fad65a"/><path d="M214.88 68.17c8.36 5.64 16.76 11.22 25.08 16.91 5.12 3.52 8.93 8.48 10.16 14.66 1.83 9.08 1.75 18.75 2.05 27.98.22 5.92.08 11.7-.82 17.56-.53-10.59-2.82-20.8-4.35-31.25-.67-3.92-1.75-7.84-3.39-11.47-1.56-3.44-3.94-5.96-5.98-9.07-1.93-2.89-3.34-5.76-5.89-8.2-5.71-5.36-11.65-10.43-18.04-14.95-3.43-2.39-6.48-5.13-9.44-8.07 3.65 1.8 7.27 3.56 10.62 5.9z" fill="#f5ce43"/><path d="M92.22 63c.04.96.07 1.93.08 2.9-2.14 3.84-5.63 4.8-9.03 7.25-4.49 2.92-7.86 6.79-11.75 10.38-3.3 3.08-6.93 4.76-9.11 8.86-2.57 4.87-5.82 9.74-7.13 14.99-1.53 6.04-3.52 11.63-4.39 17.73-.6 4.3-1.38 8.58-1.81 12.89-.7.39-1.4.78-2.11 1.17-.57-2.26-1.35-4.43-2.04-6.65.88-11.68-.24-23.33 2.61-35.22 2.15-7.33 8.49-13 14.7-17.04 7.34-5.15 15.49-8.87 22.8-14.06 2.37-1.18 4.77-2.13 7.18-3.2z" fill="#f0ca49"/><path d="M85.89 63.79c-.28.81-.56 1.61-.85 2.41-7.31 5.19-15.46 8.91-22.8 14.06-6.21 4.04-12.55 9.71-14.7 17.04-2.85 11.89-1.73 23.54-2.61 35.22-1.48 7.23-1.05 14.4-1.61 21.71-.57-9.85.11-19.67-.64-29.51.33-9.39-.4-19.4 1.37-28.64 1.39-7.67 8.09-12.8 14.24-16.79 6.73-4.62 13.91-7.16 19.85-12.85l.99-.57c2.25-.7 4.53-1.28 6.76-2.08z" fill="#d6ac2b"/><path d="M78.14 66.44c-5.94 5.69-13.12 8.23-19.85 12.85-6.15 3.99-12.85 9.12-14.24 16.79-1.77 9.24-1.04 19.25-1.37 28.64-1.43 8.57-.46 17.09-1.26 25.68-.79 8.34-.27 16.67-1.41 24.99-.24-18.13-.02-36.26-.32-54.39-.09-9.88-.35-20.32 2.21-29.99.73-2.77 2.26-4.9 4.48-6.67 7.1-5.68 15.99-9.4 23.56-14.46 2.51-1.72 5.29-2.65 8.2-3.44z" fill="#bc9420"/><path d="M92.3 65.9c.03 1.6.01 3.21-.02 4.82-1.8.96-4.77 1.71-5.62 3.74-1.51 2.74-2.21 5.31-5.22 6.78-3.06 10.88-7.72 21.11-13.23 30.95-2.13.73-4.65 1.25-6.48 2.59-1.82 1.91-2.8 4.77-3.86 7.15-1.98 4.97-4.45 9.08-5.63 14.29-.77 3.4-1.46 6.82-2.12 10.24-.35-2.83-.85-5.61-1.04-8.46.43-4.31 1.21-8.59 1.81-12.89.87-6.1 2.86-11.69 4.39-17.73 1.31-5.25 4.56-10.12 7.13-14.99 2.18-4.1 5.81-5.78 9.11-8.86 3.89-3.59 7.26-7.46 11.75-10.38 3.4-2.45 6.89-3.41 9.03-7.25z" fill="#fddc63"/><path d="M201.22 65.61l.61.6c1.73 2.69 2.17 2.73 5.19 2.95.41.5.82 1.01 1.24 1.52.19 3.48.24 6.96.38 10.43 1.18-1.04 2.35-2.09 3.53-3.14 1.19 6.03 2.27 12.1 3.67 18.08 1.32 5.69 4.37 10.94 7.18 16.06 1.56 2.8 3.38 4.93 5.91 6.88 5.11 3.89 10.49 8.79 13.3 14.64 2.93 7.92 3.85 16.64 6.06 24.81.01 6.3-.15 12.56-.4 18.85-1.09-10.51-4.19-20.44-6.41-30.71-3.57-1.52-6.31-3.32-9.2-5.88-2.92-2.6-6.51-2.51-9.87-4.21-3.16-1.96-5.47-4.88-6.17-8.59-1.09-5.79-4.81-10.2-6.38-15.84-.95-3.71-5.28-4.89-7.32-7.88-.7-1.79-.11-4.16.03-6.02-13.19.11-26.38-.16-39.57.05-8.21.17-16.03-.49-24.2.56-.41-.4-.82-.81-1.22-1.22 21.23-.29 42.48.11 63.7-.24.03-10.57.15-21.14-.06-31.7z" fill="#fde27c"/><path d="M92.28 70.72c-.02 8.67-1.33 17.35-1.21 26.01.04 2.46 1.32 4.23 2.43 6.33-.45.88-.9 1.77-1.37 2.64-2.38-1.96-4.78-5.98-7.95-6.48-.71 2.68.19 4.93.3 7.64-1.86 3.14-5.13 5.31-7.08 8.46-3.37 5.25-6.09 10.18-11.47 13.73-1.52.93-3.71.78-5.44.85-2.63 3.62-4.73 7.43-5.74 11.83-1.6 6.65-3.54 12.69-3.74 19.51-.66-.5-1.32-.99-1.99-1.47.28-4.45.66-8.88 1.1-13.31.66-3.42 1.35-6.84 2.12-10.24 1.18-5.21 3.65-9.32 5.63-14.29 1.06-2.38 2.04-5.24 3.86-7.15 1.83-1.34 4.35-1.86 6.48-2.59 5.51-9.84 10.17-20.07 13.23-30.95 3.01-1.47 3.71-4.04 5.22-6.78.85-2.03 3.82-2.78 5.62-3.74z" fill="#fde073"/><path d="M208.26 70.68c2.6 1.85 5.19 3.27 7.39 5.64 2.58 2.8 4.58 6.06 7.18 8.86 2.01 2.27 4.53 4.27 6.23 6.77 1.6 2.56 2.34 5.74 3.62 8.48 2.24 4.99 5.73 8.81 8.43 13.4 2.22 3.79 2.75 8.18 3.64 12.42 1.95 9.51 4.41 19.72 3.99 29.47-.15.9-.3 1.81-.45 2.72-2.21-8.17-3.13-16.89-6.06-24.81-2.81-5.85-8.19-10.75-13.3-14.64-2.53-1.95-4.35-4.08-5.91-6.88-2.81-5.12-5.86-10.37-7.18-16.06-1.4-5.98-2.48-12.05-3.67-18.08-1.18 1.05-2.35 2.1-3.53 3.14-.14-3.47-.19-6.95-.38-10.43z" fill="#fdde6a"/><path d="M248.28 72.57c7.53 3.58 14.04 8.71 18.13 16.09-.11 1.08-.22 2.16-.32 3.24-1.02.21-2.04.4-3.06.64-1.17-2.56-2.48-5.05-3.83-7.51-2.44-5.54-6.99-8.12-10.92-12.46z" fill="#84691a"/><path d="M22.22 74.88c5.83 5.58 6.43 13.51 6.24 21.12-.63 19 .5 38.03-.53 57-.35 16.35.19 32.74-.95 48.99-.26 4.26-.53 8.96.99 13.02.69 2.65 4.61 3.18 6.8 4.02-1.58.78-3.24 2.16-5.06 1.26-4.24-1.72-5.84-5.61-6.06-9.95-.49-11.33.81-22.81.77-34.12-.16-15.08.58-30.15.44-45.22-.09-7.98.42-15.94.28-23.92-.15-7.25.88-14.91-.16-22.07-.3-2.54-1.76-4.24-3.23-6.21.13-1.31.29-2.61.47-3.92z" fill="#13120f"/><path d="M21.75 78.8c1.47 1.97 2.93 3.67 3.23 6.21 1.04 7.16.01 14.82.16 22.07.14 7.98-.37 15.94-.28 23.92.14 15.07-.6 30.14-.44 45.22.04 11.31-1.26 22.79-.77 34.12.22 4.34 1.82 8.23 6.06 9.95 1.82.9 3.48-.48 5.06-1.26.83.19 1.67.36 2.51.53-.19-2.34-.41-4.68-.63-7.02-.7.35-1.4.7-2.11 1.05-.61-6.74-1.71-13.15-.75-19.94 1.02-7.59.56-15.04.63-22.65.03-6.33.1-12.67.06-19-.09-7.91.48-15.64-.63-23.52-.91-6.83-.77-12.98.65-19.72l.54 1.88c.66 7 .35 14.29.4 21.36.13 21.68.2 43.37.02 65.04-.17 2.55.81 4.55 1.97 6.72 1 4.26.93 9.14 2.45 13.17 1.28 3.24 5.36 5.29 8.14 7.14 6.35 3.76 11.46 8.69 18.02 12 4.91 2.49 10.06 4.37 14.82 7.18 6.49 3.78 13.09 7.4 19.48 11.35 8.02 5.41 16.38 10.28 24.33 15.8 3.89 2.8 8.29 4.09 10.73 8.04-17.49-8.96-34.05-19.78-51.11-29.55-7.69-4.39-15.08-9.12-23.24-12.62-4.89-3.34-9.4-8.56-15.15-11.17-3.1-1.41-6.89-1.1-10.23-1.1 4.7 6.91 12.17 11.95 19.25 16.18 4.58 2.95 8.76 6.19 13.98 7.96-.96.76-1.92 1.51-2.88 2.26-15.23-9-30.36-18.21-45.44-27.46-.1-7.34.74-14.61.74-21.94.21-20.66.44-41.33.46-62-.09-7.04.81-13.96.12-21-.24-12.3-.04-24.61-.33-36.92l.18-2.28z" fill="#383837"/><path d="M28.74 84.11c1.51 1.5 3.08 2.93 4.67 4.36 0 2.44.07 4.87.07 7.31-.63 5.63-.9 11.24-1.2 16.89-.74 2.42-1.53 4.73-1.64 7.28-.35 9.63.86 19.87-.87 29.3.06-7.76-.25-15.5.07-23.26.38-8.9-.78-17.65.11-26.56.53-5.23.23-10.25-1.21-15.32z" fill="#dedfc8"/><path d="M273.83 84.55c2.17 3.56 3.83 7.32 4.37 11.49 1.01 7.33.91 14.82 1.45 22.21-.31 35.85-.21 71.7-.37 107.56-6.16 3.28-12.13 6.91-18.36 10.07 1.39-4.15 5.57-6.59 7.73-10.51-3.01 1.46-6.01 2.83-9.23 3.77 4.45-3.79 10.71-7.64 11.83-13.77.94-5.67.33-11.68.33-17.41-.35-24.32-.03-48.64.14-72.96-.04-3.59-.01-7.21-.28-10.8-.73-7.16-3.49-13.71-3.25-21.07 1.16-3.31 3.17-6.12 5.64-8.58z" fill="#474745"/><path d="M266.41 88.66a38.16 38.16 0 0 1 1.78 4.47c-.24 7.36 2.52 13.91 3.25 21.07-.43-.4-.87-.8-1.32-1.19l-1.18-1.03a42.016 42.016 0 0 0-2.8 5.15c.26-8.45-.99-16.75-.05-25.23.1-1.08.21-2.16.32-3.24z" fill="#817e53"/><path d="M263.03 92.54c1.02-.24 2.04-.43 3.06-.64-.94 8.48.31 16.78.05 25.23-.39 6.87-.23 13.76-.38 20.64-.79 14.3-.63 28.67-1.1 43 .16 6.87-1.97 13.39-1.82 20.23-.13 5.14-.01 10.19.58 15.29-1.13 3.09-2.53 5.88-5.39 7.7-19.58 10.98-39.05 22.32-58.53 33.5-.38-.87-.72-1.7-.68-2.67.78-1.44 2.39-2.51 3.7-3.43 4.89-3.12 9.95-6 15-8.85 7.82-4.33 14.68-9.55 23.14-12.7 6.21-2.59 13.9-6.67 16.07-13.53 1.52-3.28 2.24-6.75 2.93-10.28 2.44-8.37.53-18.17.29-26.9-1.25-9.51.69-18.64.45-28.13-.06-5.43-.82-10.74-.55-16.18.34-6.53.29-13.07.51-19.6 2.43-7.58 3.61-14.7 2.67-22.68z" fill="#8e701e"/><path d="M272.98 93.94c3.43 5.4 3.34 11.57 3.5 17.76.2 26.77-.36 53.53-.13 80.3-.03 8.37.49 16.18-2.09 24.29-.24-12.76-1.06-25.51-.63-38.27-.03-21.33.8-42.69.45-64.02.08-6.71-1.92-13.47-1.1-20.06z" fill="#5f5d5c"/><path d="M163 98.21c13.19-.21 26.38.06 39.57-.05-.14 1.86-.73 4.23-.03 6.02 2.04 2.99 6.37 4.17 7.32 7.88 1.57 5.64 5.29 10.05 6.38 15.84.7 3.71 3.01 6.63 6.17 8.59 3.36 1.7 6.95 1.61 9.87 4.21 2.89 2.56 5.63 4.36 9.2 5.88 2.22 10.27 5.32 20.2 6.41 30.71.67 7.89 3.26 16.16 2.58 24.04-.34 4.71-3.17 7.51-6.1 10.84-.23-.97-.46-1.93-.7-2.9 2.34-3.05 5.09-5.8 4.94-9.93-.39-8.01-2.82-16.39-4.76-24.15-.87-3.46-1.36-7.18-2.71-10.49-1.4-2.83-4.44-4.98-6.85-6.94-4 .17-6.41 2.89-9.77 4.83-3.83 2.35-7.14 5.25-10.22 8.5.15 1.55.31 3.1.44 4.65-2.94 3.7-4.76 7.88-6.55 12.2-.52 2.26-3.09.81-4.63.78l-.62-.11c-2.26-.78-4.42-1.55-6.86-1.45-5.7.17-11.38.44-17.08.28-8.37-.25-15.87 1.05-23.93-2.05 1.31-1.43 2.61-2.86 3.91-4.3l-2.1-1.86c.56-1.33 2.08-2.94 1.29-4.39-1.02-2.54-2.39-4.95-3.57-7.42 1.6-1.59 3.19-3.18 4.78-4.77 4.74 5.89 10.89 9 17.29 12.74 4.29 2.45 9.13 2.39 13.8 1.2 1.82-.73 4.07-1.15 3.75-3.62.35-4.1-2.54-5.67-5.03-8.26-3.14-2.88-5.09-6.24-8.85-8.04-3.43-1.64-6.18-3.41-9.09-5.86 1.71-1.72 3.43-3.43 5.17-5.13 1.71-.38 4.41-.22 5.59-1.7 2.63-3.07 4.48-6.81 6.89-10.08 1.73-2.64 4.29-5.58 4.88-8.74.33-2.68-2.4-4.37-4.78-4.52-5.93-.33-12.32 2.87-17.49 5.5-10.89-9.13-22.02-18.03-32.71-27.37 8.17-1.05 15.99-.39 24.2-.56z" fill="#fee68d"/><path d="M84.18 99.22c3.17.5 5.57 4.52 7.95 6.48.47-.87.92-1.76 1.37-2.64.51-1.07 1-2.15 1.48-3.24 5.33 3.41 9.96 7.96 14.89 11.92-1.66 1.91-2.61 4.15-3.89 6.29-2.75 1.23-6.25 1.14-9.22 1.49 1.56 2.74 3.27 5.28 4.17 8.35 1.26 3.47 1.59 6.7 3.65 9.53 2.56 3.63 6.71 6.48 11.18 6.98 3.07.45 6.15.75 9.21 1.23-.51 1.13-1.02 2.25-1.53 3.38 2.42-1.07 4.84-2.11 7.27-3.14.06 1.16.11 2.31.1 3.47-12.27 12.27-24.59 24.49-36.84 36.78-.98 1.08-1.88 2.21-2.78 3.36-.72-.26-1.44-.52-2.15-.78.33-3.17 1.18-6.38 1.14-9.56-.7-1.01-2.57-1.23-3.65-1.74.05 3.03.14 6.05.12 9.08-1.1-1.21-2.45-2.46-3.19-3.93-.53-3.63 2.18-7.62 1.53-11.25-1.21-2.29-3.65-4.02-5.52-5.78-2.87-2.38-5.01-5.02-8.73-6-2.95-.85-5.53-2.03-8.19-3.56-5.28 1.86-6.59 6.69-8.15 11.51-1.44 5.57-2.54 11.22-3.96 16.8.35-7.7.97-15.38.57-23.01.2-6.82 2.14-12.86 3.74-19.51 1.01-4.4 3.11-8.21 5.74-11.83 1.73-.07 3.92.08 5.44-.85 5.38-3.55 8.1-8.48 11.47-13.73 1.95-3.15 5.22-5.32 7.08-8.46-.11-2.71-1.01-4.96-.3-7.64z" fill="#fde58a"/><path d="M109.87 111.74c7.24 5.88 14.34 11.93 21.56 17.83 3.51 2.96 7.1 5.71 10.32 8.99-3.62 3.61-7.29 7.17-10.94 10.76.01-1.16-.04-2.31-.1-3.47-2.43 1.03-4.85 2.07-7.27 3.14.51-1.13 1.02-2.25 1.53-3.38-3.06-.48-6.14-.78-9.21-1.23-4.47-.5-8.62-3.35-11.18-6.98-2.06-2.83-2.39-6.06-3.65-9.53-.9-3.07-2.61-5.61-4.17-8.35 2.97-.35 6.47-.26 9.22-1.49 1.28-2.14 2.23-4.38 3.89-6.29z" fill="#fdecad"/><path d="M268.94 111.98l1.18 1.03c-.12 1.94-.33 3.88-.46 5.82-.91 7.39-1.8 14.71-1.5 22.18.3 16.02.32 32.14-.54 48.14-.28-5.7-.23-11.45-.47-17.15-.59-11.42-.31-22.83-1.39-34.23.15-6.88-.01-13.77.38-20.64.81-1.78 1.75-3.5 2.8-5.15z" fill="#5f5c36"/><path d="M32.28 112.67c.54 16.43.29 32.9.23 49.33.1 12.67-.05 25.33-.12 38-.07 5.52.99 10.3-1.09 15.6-1.19-1.58-2.64-2.58-2.71-4.7-.47-8.62.98-17.21.72-25.88.27-11.92.03-23.86.46-35.77 1.73-9.43.52-19.67.87-29.3.11-2.55.9-4.86 1.64-7.28z" fill="#f6f6f2"/><path d="M255.03 113.08l1.89-.25c.13 13.72-.22 27.44.22 41.17.33 7.68-.55 15.33-.34 23 .52 9.87 1.19 19.81.82 29.69-3.15 4.14-5.2 8.81-7.75 13.29-1.23 2.26-3.25 3.44-5.51 4.47-11.15 4.59-21.38 11.17-32.14 16.63-7.17 2.22-13.29 6.34-20.17 9.19.76-.96 1.52-1.91 2.28-2.87 5.07-3.79 11.01-6.62 16.61-9.57 10.63-5.41 20.76-11.54 31.67-16.39 3.36-1.49 4.77-4.26 6.84-7.07 1.88-2.71 4.24-5.24 5.8-8.14 1.59-2.97.99-6.5.62-9.69-2.66-17.23-.12-35.39-1.82-52.76-.48-4.82-.38-9.62-.33-14.45.24-5.44.75-10.83 1.31-16.25z" fill="#cba741"/><path d="M256.92 112.83l.85-.04c.88.78 1.74 1.59 2.59 2.43-.22 6.53-.17 13.07-.51 19.6-.27 5.44.49 10.75.55 16.18.24 9.49-1.7 18.62-.45 28.13.24 8.73 2.15 18.53-.29 26.9l-2.04.66c.37-9.88-.3-19.82-.82-29.69-.21-7.67.67-15.32.34-23-.44-13.73-.09-27.45-.22-41.17z" fill="#b08e34"/><path d="M270.12 113.01c.45.39.89.79 1.32 1.19.27 3.59.24 7.21.28 10.8-.17 24.32-.49 48.64-.14 72.96 0 5.73.61 11.74-.33 17.41-1.12 6.13-7.38 9.98-11.83 13.77-16.51 9.19-32.73 18.92-49.35 27.93-7.4 4.26-14.74 8.63-22.2 12.76-9.1 4.8-17.41 10.17-27.12 13.8-3.67.93-7.3 2.33-11.04 2.93-3.94.63-8.09-2.06-11.37-3.95-13.41-8.43-26.87-16.75-40.71-24.47-12.1-7.44-24.62-14.23-36.58-21.87 8.16 3.5 15.55 8.23 23.24 12.62 17.06 9.77 33.62 20.59 51.11 29.55 4.74 2.72 9.1 5.24 14.69 5.77 2.79-.04 5.71-1.53 8.14-2.84 5.45-3.13 10.9-6.25 16.12-9.75 8.63-4.2 16.79-9.41 25.15-14.13 19.48-11.18 38.95-22.52 58.53-33.5 2.86-1.82 4.26-4.61 5.39-7.7 3.2-7.9 5.62-15.96 5.95-24.53.2-9.25.18-18.52.03-27.76.14-15.03.21-30.13.26-45.17.13-1.94.34-3.88.46-5.82z" fill="#fdfdf0"/><path d="M269.66 118.83c-.05 15.04-.12 30.14-.26 45.17.15 9.24.17 18.51-.03 27.76-.33 8.57-2.75 16.63-5.95 24.53-.59-5.1-.71-10.15-.58-15.29-.15-6.84 1.98-13.36 1.82-20.23.47-14.33.31-28.7 1.1-43 1.08 11.4.8 22.81 1.39 34.23.24 5.7.19 11.45.47 17.15.86-16 .84-32.12.54-48.14-.3-7.47.59-14.79 1.5-22.18z" fill="#867c5d"/><path d="M189 120.64c2.38.15 5.11 1.84 4.78 4.52-.59 3.16-3.15 6.1-4.88 8.74-2.41 3.27-4.26 7.01-6.89 10.08-1.18 1.48-3.88 1.32-5.59 1.7 2.37-2.51 5.22-4.83 7.12-7.73-.32-2.32-2.01-3.43-3.62-4.88-2.83-2.28-5.61-4.62-8.41-6.93 5.17-2.63 11.56-5.83 17.49-5.5z" fill="#feebad"/><path d="M42.68 124.72c.75 9.84.07 19.66.64 29.51-.41 11.61-.23 23.15-1.12 34.73-.54 8.28-.91 16.6 4.23 23.64 5.75 7.38 14.56 9.34 22.34 13.66 10 5.65 20.33 10.67 30.26 16.45-.83.84-1.66 1.69-2.49 2.54-11.95-6.55-23.55-14.11-35.95-19.76-4.35-2.03-9.69-3.53-13.05-7.04-3.83-3.98-6.72-9.06-7.35-14.62-.49-4.02-.76-8.11-.88-12.16.23-5.42.47-10.85.7-16.28 1.14-8.32.62-16.65 1.41-24.99.8-8.59-.17-17.11 1.26-25.68z" fill="#c19c3b"/><path d="M252.17 127.72c.53.53 1.04 1.07 1.55 1.61-.05 4.83-.15 9.63.33 14.45 1.7 17.37-.84 35.53 1.82 52.76.37 3.19.97 6.72-.62 9.69-1.56 2.9-3.92 5.43-5.8 8.14-2.07 2.81-3.48 5.58-6.84 7.07-10.91 4.85-21.04 10.98-31.67 16.39-5.6 2.95-11.54 5.78-16.61 9.57-3.05.25-6.04.7-8.9 1.87l.62-.48c4.19-2.36 8.41-4.57 12.43-7.2 4.4-2.88 9.2-4.97 13.67-7.72-4.88-1.08-9.34-.12-14 1.37 1.28-1.12 2.48-2.32 3.73-3.46 6.92-4.97 14.63-5.16 22.23-8.44 7.62-3.18 15.04-4.17 20.26-11.17 2.93-3.33 5.76-6.13 6.1-10.84.68-7.88-1.91-16.15-2.58-24.04.25-6.29.41-12.55.4-18.85.15-.91.3-1.82.45-2.72.73.73 1.46 1.46 2.18 2.2-.06-4.23.09-8.43.43-12.64.9-5.86 1.04-11.64.82-17.56z" fill="#e4c56c"/><path d="M44.93 132.52c.69 2.22 1.47 4.39 2.04 6.65-1.29 16.25-1.66 32.53-2.88 48.79-.53 7.53-.8 15.76 3.81 22.2 4.21 5.61 12.17 8.59 18.25 11.73 13.51 7.19 27.13 14.24 40.89 20.95 2.43 1.61 4.75 3.41 7.21 5.01-3.19-.77-6.45-1.22-9.62-2.03-1.88-1.01-3.74-2.06-5.6-3.11-9.93-5.78-20.26-10.8-30.26-16.45-7.78-4.32-16.59-6.28-22.34-13.66-5.14-7.04-4.77-15.36-4.23-23.64.89-11.58.71-23.12 1.12-34.73.56-7.31.13-14.48 1.61-21.71z" fill="#d9b64f"/><path d="M49.08 138c.19 2.85.69 5.63 1.04 8.46-.44 4.43-.82 8.86-1.1 13.31-.5 6.82-.97 13.6-1.78 20.4-.86 7-1.61 14.45-.78 21.48.51 5.02 4.34 8.85 8.34 11.49 11.63 6.79 23.95 11.65 35.87 17.66 5.72 3.15 11.55 6.09 17.38 9.03.66 1.14 1.28 2.29 1.9 3.45-.97-.15-1.94-.3-2.91-.44-13.76-6.71-27.38-13.76-40.89-20.95-6.08-3.14-14.04-6.12-18.25-11.73-4.61-6.44-4.34-14.67-3.81-22.2 1.22-16.26 1.59-32.54 2.88-48.79.71-.39 1.41-.78 2.11-1.17z" fill="#e7c968"/><path d="M171.25 150.81c2.91 2.45 5.66 4.22 9.09 5.86 3.76 1.8 5.71 5.16 8.85 8.04 2.49 2.59 5.38 4.16 5.03 8.26.32 2.47-1.93 2.89-3.75 3.62-4.67 1.19-9.51 1.25-13.8-1.2-6.4-3.74-12.55-6.85-17.29-12.74.68-.68 1.37-1.36 2.05-2.05 2.9 2.61 5.35 5.24 9.16 6.49 3.69 1.23 7.32 2.98 11.12 3.77 1.59-1.14 1.43-2.68.77-4.31-1.36-2.99-3.67-5.65-5.56-8.33-.99.58-1.98 1.17-2.97 1.75-2.19-1.77-4.35-3.58-6.58-5.3 1.3-1.28 2.57-2.59 3.88-3.86z" fill="#fee071"/><path d="M167.37 154.67c2.23 1.72 4.39 3.53 6.58 5.3.99-.58 1.98-1.17 2.97-1.75 1.89 2.68 4.2 5.34 5.56 8.33.66 1.63.82 3.17-.77 4.31-3.8-.79-7.43-2.54-11.12-3.77-3.81-1.25-6.26-3.88-9.16-6.49 1.98-1.98 3.93-3.98 5.94-5.93z" fill="#fddc5c"/><path d="M62.55 155.94c2.66 1.53 5.24 2.71 8.19 3.56 3.72.98 5.86 3.62 8.73 6 1.87 1.76 4.31 3.49 5.52 5.78.65 3.63-2.06 7.62-1.53 11.25.74 1.47 2.09 2.72 3.19 3.93.02-3.03-.07-6.05-.12-9.08 1.08.51 2.95.73 3.65 1.74.04 3.18-.81 6.39-1.14 9.56.71.26 1.43.52 2.15.78.9-1.15 1.8-2.28 2.78-3.36-.18 11.07-.39 22.27.22 33.32 13.6.1 27.2.05 40.8.04 2.13 0 4.25.09 6.36.38-4.13 1.08-8.11 1.27-12.36.94-9.52-.77-18.41.7-27.86 1.73-4.71.52-9.45.63-14.15 1.19-6.48-2.94-13.3-4.92-19.71-8.02-5.66-2.69-11.8-3.95-15.46-9.48-4.72-5.97-1.93-14.98-1.37-21.95 1.42-5.58 2.52-11.23 3.96-16.8 1.56-4.82 2.87-9.65 8.15-11.51z" fill="#fde9a0"/><path d="M234.29 157.76c2.41 1.96 5.45 4.11 6.85 6.94 1.35 3.31 1.84 7.03 2.71 10.49 1.94 7.76 4.37 16.14 4.76 24.15.15 4.13-2.6 6.88-4.94 9.93.24.97.47 1.93.7 2.9-6.14 1.63-11.46 5.03-17.61 6.61-6.16 1.61-12.45 2.48-18.52 4.51-.26-1.09-.53-2.17-.79-3.25-1.08.55-2.37 1.1-3.18 2-.38 1.49-.44 3.07-.6 4.59-2.19-1.83-2.88-2.95-3.56-5.75-3.01-.62-6.04-.96-9.12-.96-9.67.19-19.29-.44-28.95.24l-.74.01.06-.73c14.03-.05 28.1.24 42.12-.14.06-10.19-.08-20.39.08-30.58 1.54.03 4.11 1.48 4.63-.78 1.79-4.32 3.61-8.5 6.55-12.2-.13-1.55-.29-3.1-.44-4.65 3.08-3.25 6.39-6.15 10.22-8.5 3.36-1.94 5.77-4.66 9.77-4.83z" fill="#fde9a1"/><path d="M49.02 159.77c.67.48 1.33.97 1.99 1.47.4 7.63-.22 15.31-.57 23.01-.56 6.97-3.35 15.98 1.37 21.95 3.66 5.53 9.8 6.79 15.46 9.48 6.41 3.1 13.23 5.08 19.71 8.02.29 1.16.6 2.31.9 3.47 2.2 1.12 4.37 2.31 6.56 3.43-1.26.08-2.51.17-3.77.2-11.92-6.01-24.24-10.87-35.87-17.66-4-2.64-7.83-6.47-8.34-11.49-.83-7.03-.08-14.48.78-21.48.81-6.8 1.28-13.58 1.78-20.4z" fill="#efd78a"/><path d="M154.6 167.42c1.18 2.47 2.55 4.88 3.57 7.42.79 1.45-.73 3.06-1.29 4.39l2.1 1.86c-1.3 1.44-2.6 2.87-3.91 4.3 8.06 3.1 15.56 1.8 23.93 2.05 5.7.16 11.38-.11 17.08-.28 2.44-.1 4.6.67 6.86 1.45-23.02-.08-46.06.26-69.08-.13 6.65-7.26 13.82-14.06 20.74-21.06z" fill="#f8e9b0"/><path d="M63.12 174.08c2.2 2.65 4.16 3.76 7.41 4.82 2.7 4.76 4.28 10.13 7.13 14.77 1.08 1.86 2.78 1.3 4.59 1.55.62 4.53.82 9.07.82 13.63-1.94 1.75-3.93 4.12-6.37 5.16-5.27-1-10.24-3.32-15.55-4.35-5.44-1-9.38-6.21-9.27-11.65.04-4.23 1.24-8.61 2.27-12.71.76-2.68 1.46-5.78 3.07-8.09 1.36-1.64 3.96-2.36 5.9-3.13zM240.11 179.89c2.27 3.72 3.18 8.4 4.29 12.58 1.47 5.44.34 11.36-3.12 15.79-2.71 2.18-7.04 2.62-10.32 3.7-3.38.83-7.27 2.36-10.75 1.92-2.34-.73-5.88-2.79-6.41-5.38 1.28-9.15 4.83-17.76 10.64-24.98 2.34-2.32 5.02-4.58 7.78-6.4 2.43-2.06 6.34.79 7.89 2.77z" fill="#fdedb5"/><path d="M39.31 191.67c.12 4.05.39 8.14.88 12.16.63 5.56 3.52 10.64 7.35 14.62 3.36 3.51 8.7 5.01 13.05 7.04 12.4 5.65 24 13.21 35.95 19.76 11.77 6.3 23.1 14.32 35.34 20.02 4.24 2 8.79 3.13 13.07 4.98 2.36.98 3.46 2.95 4.98 4.87-2.95-.25-5.8-.49-8.69.35-1.5.43-2.71.42-4.12-.34-8.37-4.22-15.78-9.64-23.82-14.35-4.51-2.71-8.43-6.13-12.78-9.06-.06.96-.13 1.92-.18 2.88-6.39-3.95-12.99-7.57-19.48-11.35-4.76-2.81-9.91-4.69-14.82-7.18-6.56-3.31-11.67-8.24-18.02-12-2.78-1.85-6.86-3.9-8.14-7.14-1.52-4.03-1.45-8.91-2.45-13.17.7-4.03 1.43-8.02 1.88-12.09z" fill="#ac841c"/><path d="M257.62 206.69l2.04-.66c-.69 3.53-1.41 7-2.93 10.28-2.17 6.86-9.86 10.94-16.07 13.53-8.46 3.15-15.32 8.37-23.14 12.7-5.05 2.85-10.11 5.73-15 8.85-1.31.92-2.92 1.99-3.7 3.43-.04.97.3 1.8.68 2.67-8.36 4.72-16.52 9.93-25.15 14.13-4.18.77-8.29 2.71-12.44 2.53-3.01-.08-5.89.5-8.84.94 5.64-5.85 12.72-6.6 19.5-10.42 4.31-2.37 8.55-4.87 12.92-7.14 5.91-3.04 10.92-7.31 17-10.04 3.64-1.61 6.72-3.83 9.73-6.41 10.76-5.46 20.99-12.04 32.14-16.63 2.26-1.03 4.28-2.21 5.51-4.47 2.55-4.48 4.6-9.15 7.75-13.29z" fill="#b58d21"/><path d="M244.37 212.17c-5.22 7-12.64 7.99-20.26 11.17-7.6 3.28-15.31 3.47-22.23 8.44-5.13 1.28-10.43 2.34-15.72 2.58-6.21.22-11.68-1.97-17.52-3.8-1.28-.54-3.2-.94-4.02-2.11-1.35-2.5-1.8-5.57-2.58-8.29 9.66-.68 19.28-.05 28.95-.24 3.08 0 6.11.34 9.12.96.68 2.8 1.37 3.92 3.56 5.75.16-1.52.22-3.1.6-4.59.81-.9 2.1-1.45 3.18-2 .26 1.08.53 2.16.79 3.25 6.07-2.03 12.36-2.9 18.52-4.51 6.15-1.58 11.47-4.98 17.61-6.61z" fill="#fde385"/><path d="M141.35 219.84l.94.11c.04 4.12.03 8.25 0 12.37 1.31.54 2.62 1.07 3.94 1.61-.54.76-1.07 1.52-1.61 2.28-1.37-1.15-3.03-2.27-4.04-3.77-1.2-3.06-1.08-6.82-1.46-10.09-3.44.18-6.87.37-10.29.92 2.25.35 4.49.68 6.74.97.12 3.74.03 7.47-.51 11.18-1.87-2.55-3.27-5.35-4.68-8.17-.96 1.9-1.44 5.09-3.84 5.61-4.96 1.48-10.05 2.79-15.22 1.89-5.73-.98-11.72-1.56-16.88-4.15-2.19-1.12-4.36-2.31-6.56-3.43-.3-1.16-.61-2.31-.9-3.47 4.7-.56 9.44-.67 14.15-1.19 9.45-1.03 18.34-2.5 27.86-1.73 4.25.33 8.23.14 12.36-.94z" fill="#fde384"/><path d="M161.3 220.17l.74-.01c.78 2.72 1.23 5.79 2.58 8.29.82 1.17 2.74 1.57 4.02 2.11 5.84 1.83 11.31 4.02 17.52 3.8 5.29-.24 10.59-1.3 15.72-2.58-1.25 1.14-2.45 2.34-3.73 3.46-4.13 1.4-8.19 2.71-11.89 5.08-3.3 2.1-6.72 3.75-10.37 5.16-1.67-.77-3.41-1.74-5.23-2.14-2.35-.24-4.86.29-7.21.56-3.77.5-7.39.28-11.17.12.9-1.07 1.79-2.14 2.68-3.22-2.47-.27-4.57-.98-6.87.39-5.15 2.81-11.75 4.85-17.59 3.28-7.58-2.18-15.14-1.1-22.45-4.64-5.83-2.94-11.66-5.88-17.38-9.03 1.26-.03 2.51-.12 3.77-.2 5.16 2.59 11.15 3.17 16.88 4.15 5.17.9 10.26-.41 15.22-1.89 2.4-.52 2.88-3.71 3.84-5.61 1.41 2.82 2.81 5.62 4.68 8.17.54-3.71.63-7.44.51-11.18-2.25-.29-4.49-.62-6.74-.97 3.42-.55 6.85-.74 10.29-.92.38 3.27.26 7.03 1.46 10.09 1.01 1.5 2.67 2.62 4.04 3.77.54-.76 1.07-1.52 1.61-2.28-1.32-.54-2.63-1.07-3.94-1.61 6.16.19 12.36.2 18.51-.01.48-4.04.39-8.08.5-12.14z" fill="#fcde6f"/><path d="M35.67 224c3.34 0 7.13-.31 10.23 1.1 5.75 2.61 10.26 7.83 15.15 11.17 11.96 7.64 24.48 14.43 36.58 21.87 13.84 7.72 27.3 16.04 40.71 24.47 3.28 1.89 7.43 4.58 11.37 3.95 3.74-.6 7.37-2 11.04-2.93l2.15.34c-2.93 1.89-6.06 3.41-9.02 5.25 5.76.14 11.01-1.76 16.69-2.28-7.16 4.37-14.5 8.43-21.65 12.81-17.38-10.98-35.22-21.24-52.79-31.9-10.07-5.76-20.08-11.62-30.11-17.45.96-.75 1.92-1.5 2.88-2.26-5.22-1.77-9.4-5.01-13.98-7.96-7.08-4.23-14.55-9.27-19.25-16.18z" fill="#42433f"/><path d="M268.65 225.37c-2.16 3.92-6.34 6.36-7.73 10.51-22.83 13.28-46.01 25.96-68.88 39.16-7.24 3.83-14.16 8.23-21.47 11.9-5.68.52-10.93 2.42-16.69 2.28 2.96-1.84 6.09-3.36 9.02-5.25l-2.15-.34c9.71-3.63 18.02-9 27.12-13.8 7.46-4.13 14.8-8.5 22.2-12.76 16.62-9.01 32.84-18.74 49.35-27.93 3.22-.94 6.22-2.31 9.23-3.77z" fill="#636260"/><path d="M212.15 233.87c-4.47 2.75-9.27 4.84-13.67 7.72-4.02 2.63-8.24 4.84-12.43 7.2-2.62.67-5.1 1.35-7.36 2.9-4.69 3.11-9.74 3.76-14.97 6-2.24.92-3.46 1.07-5.76.18 2.67-3.22 5.25-6.89 9.33-8.4 2.95-1.16 5.86-2.37 8.6-3.99 3.65-1.41 7.07-3.06 10.37-5.16 3.7-2.37 7.76-3.68 11.89-5.08 4.66-1.49 9.12-2.45 14-1.37z" fill="#f0ce62"/><path d="M108.05 239.83c7.31 3.54 14.87 2.46 22.45 4.64 5.84 1.57 12.44-.47 17.59-3.28 2.3-1.37 4.4-.66 6.87-.39-.89 1.08-1.78 2.15-2.68 3.22 3.78.16 7.4.38 11.17-.12 2.35-.27 4.86-.8 7.21-.56 1.82.4 3.56 1.37 5.23 2.14-2.74 1.62-5.65 2.83-8.6 3.99-4.08 1.51-6.66 5.18-9.33 8.4-7.94-5.3-15.65-2.7-24.19-4.78-8.01-3.03-15.76-6.92-23.82-9.81-.62-1.16-1.24-2.31-1.9-3.45z" fill="#fbd95b"/><path d="M212.22 241.08c-3.01 2.58-6.09 4.8-9.73 6.41-6.08 2.73-11.09 7-17 10.04-4.37 2.27-8.61 4.77-12.92 7.14-6.78 3.82-13.86 4.57-19.5 10.42-1.05.09-2.09.09-3.14.03-1.52-1.92-2.62-3.89-4.98-4.87-4.28-1.85-8.83-2.98-13.07-4.98-12.24-5.7-23.57-13.72-35.34-20.02.83-.85 1.66-1.7 2.49-2.54 1.86 1.05 3.72 2.1 5.6 3.11 14.16 8.56 29.23 17.38 44.89 22.75 2.34.84 4.23.57 6.47-.35 6.25-2.58 12.31-4.69 18.13-8.12 5.89-3.43 11.96-6.54 17.93-9.83 6.88-2.85 13-6.97 20.17-9.19z" fill="#c8a12f"/><path d="M107.04 242.84c.97.14 1.94.29 2.91.44 8.06 2.89 15.81 6.78 23.82 9.81 8.54 2.08 16.25-.52 24.19 4.78 2.3.89 3.52.74 5.76-.18 5.23-2.24 10.28-2.89 14.97-6 2.26-1.55 4.74-2.23 7.36-2.9l-.62.48c-4.36 4.44-9.79 6.44-15.28 9.07-6 2.73-12.22 4.83-18.04 7.96-7.04-3.79-14.73-5.91-21.72-9.78-5.35-2.95-10.7-5.88-16.14-8.67-2.46-1.6-4.78-3.4-7.21-5.01z" fill="#f4cd48"/><path d="M114.25 247.85c5.44 2.79 10.79 5.72 16.14 8.67 6.99 3.87 14.68 5.99 21.72 9.78 5.82-3.13 12.04-5.23 18.04-7.96 5.49-2.63 10.92-4.63 15.28-9.07 2.86-1.17 5.85-1.62 8.9-1.87-.76.96-1.52 1.91-2.28 2.87-5.97 3.29-12.04 6.4-17.93 9.83-5.82 3.43-11.88 5.54-18.13 8.12-2.24.92-4.13 1.19-6.47.35-15.66-5.37-30.73-14.19-44.89-22.75 3.17.81 6.43 1.26 9.62 2.03z" fill="#deb73b"/><path d="M100.52 251.72c4.35 2.93 8.27 6.35 12.78 9.06 8.04 4.71 15.45 10.13 23.82 14.35 1.41.76 2.62.77 4.12.34 2.89-.84 5.74-.6 8.69-.35 1.05.06 2.09.06 3.14-.03 2.95-.44 5.83-1.02 8.84-.94 4.15.18 8.26-1.76 12.44-2.53-5.22 3.5-10.67 6.62-16.12 9.75-2.43 1.31-5.35 2.8-8.14 2.84-5.59-.53-9.95-3.05-14.69-5.77-2.44-3.95-6.84-5.24-10.73-8.04-7.95-5.52-16.31-10.39-24.33-15.8.05-.96.12-1.92.18-2.88z" fill="#9b812c"/></svg>